<?xml version="1.0" encoding="UTF-8" standalone="no"?>
<!DOCTYPE svg PUBLIC "-//W3C//DTD SVG 1.1//EN"
 "http://www.w3.org/Graphics/SVG/1.1/DTD/svg11.dtd">
<!-- Generated by graphviz version 2.42.4 (0)
 -->
<!-- Title: sdwan_v5 Pages: 1 -->
<svg width="2221pt" height="772pt"
 viewBox="0.00 0.00 2220.63 772.00" xmlns="http://www.w3.org/2000/svg" xmlns:xlink="http://www.w3.org/1999/xlink">
<g id="graph0" class="graph" transform="scale(1 1) rotate(0) translate(18 754)">
<title>sdwan_v5</title>
<polygon fill="white" stroke="transparent" points="-18,18 -18,-754 2202.63,-754 2202.63,18 -18,18"/>
<text text-anchor="middle" x="1092.32" y="-716" font-family="Arial" font-size="20.00">SD&#45;WAN v5 logical topology</text>
<g id="clust1" class="cluster">
<title>cluster_management</title>
<path fill="white" stroke="#9ca3af" d="M38.18,-8C38.18,-8 530.72,-8 530.72,-8 536.72,-8 542.72,-14 542.72,-20 542.72,-20 542.72,-78 542.72,-78 542.72,-84 536.72,-90 530.72,-90 530.72,-90 38.18,-90 38.18,-90 32.18,-90 26.18,-84 26.18,-78 26.18,-78 26.18,-20 26.18,-20 26.18,-14 32.18,-8 38.18,-8"/>
<text text-anchor="middle" x="284.45" y="-70" font-family="Arial" font-size="20.00">Management: mgmtbr reaches all Edge routers</text>
</g>
<g id="clust2" class="cluster">
<title>cluster_hubs</title>
<path fill="white" stroke="#9ca3af" d="M712.63,-548C712.63,-548 910.63,-548 910.63,-548 916.63,-548 922.63,-554 922.63,-560 922.63,-560 922.63,-679 922.63,-679 922.63,-685 916.63,-691 910.63,-691 910.63,-691 712.63,-691 712.63,-691 706.63,-691 700.63,-685 700.63,-679 700.63,-679 700.63,-560 700.63,-560 700.63,-554 706.63,-548 712.63,-548"/>
<text text-anchor="middle" x="811.63" y="-671" font-family="Arial" font-size="20.00">Dual active&#45;active hubs</text>
</g>
<g id="clust3" class="cluster">
<title>cluster_underlay</title>
<path fill="white" stroke="#9ca3af" d="M1002.63,-368C1002.63,-368 1514.63,-368 1514.63,-368 1520.63,-368 1526.63,-374 1526.63,-380 1526.63,-380 1526.63,-438 1526.63,-438 1526.63,-444 1520.63,-450 1514.63,-450 1514.63,-450 1002.63,-450 1002.63,-450 996.63,-450 990.63,-444 990.63,-438 990.63,-438 990.63,-380 990.63,-380 990.63,-374 996.63,-368 1002.63,-368"/>
<text text-anchor="middle" x="1258.63" y="-430" font-family="Arial" font-size="20.00">Three physical underlays</text>
</g>
<g id="clust4" class="cluster">
<title>cluster_branch_node1</title>
<path fill="white" stroke="#9ca3af" d="M71.08,-458C71.08,-458 922.63,-458 922.63,-458 928.63,-458 934.63,-464 934.63,-470 934.63,-470 934.63,-528 934.63,-528 934.63,-534 928.63,-540 922.63,-540 922.63,-540 71.08,-540 71.08,-540 65.08,-540 59.08,-534 59.08,-528 59.08,-528 59.08,-470 59.08,-470 59.08,-464 65.08,-458 71.08,-458"/>
<text text-anchor="middle" x="496.86" y="-520" font-family="Arial" font-size="20.00">node1 LAN (10.1.0.0/24)</text>
</g>
<g id="clust5" class="cluster">
<title>cluster_branch_node2</title>
<path fill="white" stroke="#9ca3af" d="M71.08,-368C71.08,-368 922.63,-368 922.63,-368 928.63,-368 934.63,-374 934.63,-380 934.63,-380 934.63,-438 934.63,-438 934.63,-444 928.63,-450 922.63,-450 922.63,-450 71.08,-450 71.08,-450 65.08,-450 59.08,-444 59.08,-438 59.08,-438 59.08,-380 59.08,-380 59.08,-374 65.08,-368 71.08,-368"/>
<text text-anchor="middle" x="496.86" y="-430" font-family="Arial" font-size="20.00">node2 LAN (10.2.0.0/24)</text>
</g>
<g id="clust6" class="cluster">
<title>cluster_branch_node3</title>
<path fill="white" stroke="#9ca3af" d="M71.08,-278C71.08,-278 922.63,-278 922.63,-278 928.63,-278 934.63,-284 934.63,-290 934.63,-290 934.63,-348 934.63,-348 934.63,-354 928.63,-360 922.63,-360 922.63,-360 71.08,-360 71.08,-360 65.08,-360 59.08,-354 59.08,-348 59.08,-348 59.08,-290 59.08,-290 59.08,-284 65.08,-278 71.08,-278"/>
<text text-anchor="middle" x="496.86" y="-340" font-family="Arial" font-size="20.00">node3 LAN (10.3.0.0/24)</text>
</g>
<g id="clust7" class="cluster">
<title>cluster_branch_node4</title>
<path fill="white" stroke="#9ca3af" d="M71.08,-188C71.08,-188 922.63,-188 922.63,-188 928.63,-188 934.63,-194 934.63,-200 934.63,-200 934.63,-258 934.63,-258 934.63,-264 928.63,-270 922.63,-270 922.63,-270 71.08,-270 71.08,-270 65.08,-270 59.08,-264 59.08,-258 59.08,-258 59.08,-200 59.08,-200 59.08,-194 65.08,-188 71.08,-188"/>
<text text-anchor="middle" x="496.86" y="-250" font-family="Arial" font-size="20.00">node4 LAN (10.4.0.0/24)</text>
</g>
<g id="clust8" class="cluster">
<title>cluster_branch_node5</title>
<path fill="white" stroke="#9ca3af" d="M71.08,-98C71.08,-98 922.63,-98 922.63,-98 928.63,-98 934.63,-104 934.63,-110 934.63,-110 934.63,-168 934.63,-168 934.63,-174 928.63,-180 922.63,-180 922.63,-180 71.08,-180 71.08,-180 65.08,-180 59.08,-174 59.08,-168 59.08,-168 59.08,-110 59.08,-110 59.08,-104 65.08,-98 71.08,-98"/>
<text text-anchor="middle" x="496.86" y="-160" font-family="Arial" font-size="20.00">node5 LAN (10.5.0.0/24)</text>
</g>
<g id="clust9" class="cluster">
<title>cluster_data_center</title>
<path fill="white" stroke="#9ca3af" d="M1233.5,-578C1233.5,-578 1826.63,-578 1826.63,-578 1832.63,-578 1838.63,-584 1838.63,-590 1838.63,-590 1838.63,-648 1838.63,-648 1838.63,-654 1832.63,-660 1826.63,-660 1826.63,-660 1233.5,-660 1233.5,-660 1227.5,-660 1221.5,-654 1221.5,-648 1221.5,-648 1221.5,-590 1221.5,-590 1221.5,-584 1227.5,-578 1233.5,-578"/>
<text text-anchor="middle" x="1530.06" y="-640" font-family="Arial" font-size="20.00">Data Center (10.100.0.0/24)</text>
</g>
<g id="clust10" class="cluster">
<title>cluster_saas</title>
<path fill="white" stroke="#9ca3af" d="M1680.5,-368C1680.5,-368 2164.63,-368 2164.63,-368 2170.63,-368 2176.63,-374 2176.63,-380 2176.63,-380 2176.63,-438 2176.63,-438 2176.63,-444 2170.63,-450 2164.63,-450 2164.63,-450 1680.5,-450 1680.5,-450 1674.5,-450 1668.5,-444 1668.5,-438 1668.5,-438 1668.5,-380 1668.5,-380 1668.5,-374 1674.5,-368 1680.5,-368"/>
<text text-anchor="middle" x="1922.57" y="-430" font-family="Arial" font-size="20.00">Public SaaS simulation (198.18.0.0/24)</text>
</g>
<!-- mgmtroot -->
<g id="node1" class="node">
<title>mgmtroot</title>
<polygon fill="#e5e7eb" stroke="#374151" points="255.48,-39.56 144.78,-52 34.08,-39.56 34.19,-19.44 255.38,-19.44 255.48,-39.56"/>
<text text-anchor="middle" x="144.78" y="-31.5" font-family="Arial" font-size="10.00">mgmtroot\ncontroller / services</text>
</g>
<!-- mgmtbr -->
<g id="node2" class="node">
<title>mgmtbr</title>
<polygon fill="#e5e7eb" stroke="#374151" points="493.1,-52 451.35,-34 493.1,-16 534.85,-34 493.1,-52"/>
<text text-anchor="middle" x="493.1" y="-31.5" font-family="Arial" font-size="10.00">mgmtbr</text>
</g>
<!-- mgmtroot&#45;&#45;mgmtbr -->
<g id="edge1" class="edge">
<title>mgmtroot&#45;&#45;mgmtbr</title>
<path fill="none" stroke="#6b7280" stroke-dasharray="5,2" d="M255.83,-34C322.38,-34 403.34,-34 451.13,-34"/>
</g>
<!-- hub1 -->
<g id="node3" class="node">
<title>hub1</title>
<path fill="#ede9fe" stroke="#374151" d="M860.63,-653C860.63,-653 762.63,-653 762.63,-653 756.63,-653 750.63,-647 750.63,-641 750.63,-641 750.63,-629 750.63,-629 750.63,-623 756.63,-617 762.63,-617 762.63,-617 860.63,-617 860.63,-617 866.63,-617 872.63,-623 872.63,-629 872.63,-629 872.63,-641 872.63,-641 872.63,-647 866.63,-653 860.63,-653"/>
<text text-anchor="middle" x="811.63" y="-632.5" font-family="Arial" font-size="10.00">hub1\nActive&#45;active hub</text>
</g>
<!-- transport_fabric -->
<g id="node5" class="node">
<title>transport_fabric</title>
<path fill="#dbeafe" stroke="#374151" d="M1506.63,-412C1506.63,-412 1010.63,-412 1010.63,-412 1004.63,-412 998.63,-406 998.63,-400 998.63,-400 998.63,-388 998.63,-388 998.63,-382 1004.63,-376 1010.63,-376 1010.63,-376 1506.63,-376 1506.63,-376 1512.63,-376 1518.63,-382 1518.63,-388 1518.63,-388 1518.63,-400 1518.63,-400 1518.63,-406 1512.63,-412 1506.63,-412"/>
<text text-anchor="middle" x="1258.63" y="-391.5" font-family="Arial" font-size="10.00">Transport fabric\nMPLS: s_mpls (20 Mbps, 4 ms)\nBroadband: s_bb (50 Mbps, 25 ms)\nLTE: s_lte (8 Mbps, 60 ms)</text>
</g>
<!-- hub1&#45;&#45;transport_fabric -->
<g id="edge12" class="edge">
<title>hub1&#45;&#45;transport_fabric</title>
<path fill="none" stroke="#2563eb" stroke-width="1.8" d="M872.92,-620.18C903.65,-612.62 934.63,-605 934.63,-605 934.63,-605 1151.47,-463.35 1229.81,-412.17"/>
</g>
<!-- dcbr -->
<g id="node21" class="node">
<title>dcbr</title>
<polygon fill="#e5e7eb" stroke="#374151" points="1258.63,-622 1229.36,-604 1258.63,-586 1287.91,-604 1258.63,-622"/>
<text text-anchor="middle" x="1258.63" y="-601.5" font-family="Arial" font-size="10.00">dcbr</text>
</g>
<!-- hub1&#45;&#45;dcbr -->
<g id="edge19" class="edge">
<title>hub1&#45;&#45;dcbr</title>
<path fill="none" stroke="#374151" d="M872.65,-630.82C971.1,-623.96 1162.88,-610.6 1232.02,-605.78"/>
</g>
<!-- hub2 -->
<g id="node4" class="node">
<title>hub2</title>
<path fill="#ede9fe" stroke="#374151" d="M860.63,-592C860.63,-592 762.63,-592 762.63,-592 756.63,-592 750.63,-586 750.63,-580 750.63,-580 750.63,-568 750.63,-568 750.63,-562 756.63,-556 762.63,-556 762.63,-556 860.63,-556 860.63,-556 866.63,-556 872.63,-562 872.63,-568 872.63,-568 872.63,-580 872.63,-580 872.63,-586 866.63,-592 860.63,-592"/>
<text text-anchor="middle" x="811.63" y="-571.5" font-family="Arial" font-size="10.00">hub2\nActive&#45;active hub</text>
</g>
<!-- hub2&#45;&#45;transport_fabric -->
<g id="edge13" class="edge">
<title>hub2&#45;&#45;transport_fabric</title>
<path fill="none" stroke="#2563eb" stroke-width="1.8" d="M872.92,-560.16C903.65,-553.11 934.63,-546 934.63,-546 934.63,-546 1133.75,-452.3 1219.31,-412.03"/>
</g>
<!-- hub2&#45;&#45;dcbr -->
<g id="edge20" class="edge">
<title>hub2&#45;&#45;dcbr</title>
<path fill="none" stroke="#374151" d="M872.65,-578.05C971.1,-584.68 1162.88,-597.61 1232.02,-602.27"/>
</g>
<!-- inetbr -->
<g id="node23" class="node">
<title>inetbr</title>
<polygon fill="#e5e7eb" stroke="#374151" points="1710.63,-412 1676.37,-394 1710.63,-376 1744.9,-394 1710.63,-412"/>
<text text-anchor="middle" x="1710.63" y="-391.5" font-family="Arial" font-size="10.00">inetbr</text>
</g>
<!-- transport_fabric&#45;&#45;inetbr -->
<g id="edge22" class="edge">
<title>transport_fabric&#45;&#45;inetbr</title>
<path fill="none" stroke="#16a34a" stroke-width="1.8" d="M1518.79,-394C1581.7,-394 1640.97,-394 1676.29,-394"/>
</g>
<!-- node1_host -->
<g id="node6" class="node">
<title>node1_host</title>
<ellipse fill="#fef3c7" stroke="#374151" cx="144.78" cy="-484" rx="77.91" ry="18"/>
<text text-anchor="middle" x="144.78" y="-481.5" font-family="Arial" font-size="10.00">node1_host\nBranch client</text>
</g>
<!-- lsw1 -->
<g id="node7" class="node">
<title>lsw1</title>
<polygon fill="#dbeafe" stroke="#374151" points="493.1,-502 361.53,-484 493.1,-466 624.67,-484 493.1,-502"/>
<text text-anchor="middle" x="493.1" y="-481.5" font-family="Arial" font-size="10.00">lsw1\nOpenFlow 1.3\nDPID 101</text>
</g>
<!-- node1_host&#45;&#45;lsw1 -->
<g id="edge2" class="edge">
<title>node1_host&#45;&#45;lsw1</title>
<path fill="none" stroke="#374151" d="M222.64,-484C263.39,-484 314.58,-484 361.36,-484"/>
</g>
<!-- node1 -->
<g id="node8" class="node">
<title>node1</title>
<path fill="#ede9fe" stroke="#374151" d="M914.63,-502C914.63,-502 708.63,-502 708.63,-502 702.63,-502 696.63,-496 696.63,-490 696.63,-490 696.63,-478 696.63,-478 696.63,-472 702.63,-466 708.63,-466 708.63,-466 914.63,-466 914.63,-466 920.63,-466 926.63,-472 926.63,-478 926.63,-478 926.63,-490 926.63,-490 926.63,-496 920.63,-502 914.63,-502"/>
<text text-anchor="middle" x="811.63" y="-481.5" font-family="Arial" font-size="10.00">node1\nEdge router\nprimary hub1; standby hub2</text>
</g>
<!-- lsw1&#45;&#45;node1 -->
<g id="edge3" class="edge">
<title>lsw1&#45;&#45;node1</title>
<path fill="none" stroke="#374151" d="M624.67,-484C648.51,-484 673.22,-484 696.54,-484"/>
</g>
<!-- node1&#45;&#45;transport_fabric -->
<g id="edge14" class="edge">
<title>node1&#45;&#45;transport_fabric</title>
<path fill="none" stroke="#2563eb" stroke-width="1.8" d="M901.88,-465.95C979.39,-450.27 1091.06,-427.69 1168.53,-412.02"/>
</g>
<!-- node2_host -->
<g id="node9" class="node">
<title>node2_host</title>
<ellipse fill="#fef3c7" stroke="#374151" cx="144.78" cy="-394" rx="77.91" ry="18"/>
<text text-anchor="middle" x="144.78" y="-391.5" font-family="Arial" font-size="10.00">node2_host\nBranch client</text>
</g>
<!-- lsw2 -->
<g id="node10" class="node">
<title>lsw2</title>
<polygon fill="#dbeafe" stroke="#374151" points="493.1,-412 361.53,-394 493.1,-376 624.67,-394 493.1,-412"/>
<text text-anchor="middle" x="493.1" y="-391.5" font-family="Arial" font-size="10.00">lsw2\nOpenFlow 1.3\nDPID 102</text>
</g>
<!-- node2_host&#45;&#45;lsw2 -->
<g id="edge4" class="edge">
<title>node2_host&#45;&#45;lsw2</title>
<path fill="none" stroke="#374151" d="M222.64,-394C263.39,-394 314.58,-394 361.36,-394"/>
</g>
<!-- node2 -->
<g id="node11" class="node">
<title>node2</title>
<path fill="#ede9fe" stroke="#374151" d="M914.63,-412C914.63,-412 708.63,-412 708.63,-412 702.63,-412 696.63,-406 696.63,-400 696.63,-400 696.63,-388 696.63,-388 696.63,-382 702.63,-376 708.63,-376 708.63,-376 914.63,-376 914.63,-376 920.63,-376 926.63,-382 926.63,-388 926.63,-388 926.63,-400 926.63,-400 926.63,-406 920.63,-412 914.63,-412"/>
<text text-anchor="middle" x="811.63" y="-391.5" font-family="Arial" font-size="10.00">node2\nEdge router\nprimary hub1; standby hub2</text>
</g>
<!-- lsw2&#45;&#45;node2 -->
<g id="edge5" class="edge">
<title>lsw2&#45;&#45;node2</title>
<path fill="none" stroke="#374151" d="M624.67,-394C648.51,-394 673.22,-394 696.54,-394"/>
</g>
<!-- node2&#45;&#45;transport_fabric -->
<g id="edge15" class="edge">
<title>node2&#45;&#45;transport_fabric</title>
<path fill="none" stroke="#2563eb" stroke-width="1.8" d="M926.65,-394C949.06,-394 973.4,-394 998.39,-394"/>
</g>
<!-- node3_host -->
<g id="node12" class="node">
<title>node3_host</title>
<ellipse fill="#fef3c7" stroke="#374151" cx="144.78" cy="-304" rx="77.91" ry="18"/>
<text text-anchor="middle" x="144.78" y="-301.5" font-family="Arial" font-size="10.00">node3_host\nBranch client</text>
</g>
<!-- lsw3 -->
<g id="node13" class="node">
<title>lsw3</title>
<polygon fill="#dbeafe" stroke="#374151" points="493.1,-322 361.53,-304 493.1,-286 624.67,-304 493.1,-322"/>
<text text-anchor="middle" x="493.1" y="-301.5" font-family="Arial" font-size="10.00">lsw3\nOpenFlow 1.3\nDPID 103</text>
</g>
<!-- node3_host&#45;&#45;lsw3 -->
<g id="edge6" class="edge">
<title>node3_host&#45;&#45;lsw3</title>
<path fill="none" stroke="#374151" d="M222.64,-304C263.39,-304 314.58,-304 361.36,-304"/>
</g>
<!-- node3 -->
<g id="node14" class="node">
<title>node3</title>
<path fill="#ede9fe" stroke="#374151" d="M914.63,-322C914.63,-322 708.63,-322 708.63,-322 702.63,-322 696.63,-316 696.63,-310 696.63,-310 696.63,-298 696.63,-298 696.63,-292 702.63,-286 708.63,-286 708.63,-286 914.63,-286 914.63,-286 920.63,-286 926.63,-292 926.63,-298 926.63,-298 926.63,-310 926.63,-310 926.63,-316 920.63,-322 914.63,-322"/>
<text text-anchor="middle" x="811.63" y="-301.5" font-family="Arial" font-size="10.00">node3\nEdge router\nprimary hub1; standby hub2</text>
</g>
<!-- lsw3&#45;&#45;node3 -->
<g id="edge7" class="edge">
<title>lsw3&#45;&#45;node3</title>
<path fill="none" stroke="#374151" d="M624.67,-304C648.51,-304 673.22,-304 696.54,-304"/>
</g>
<!-- node3&#45;&#45;transport_fabric -->
<g id="edge16" class="edge">
<title>node3&#45;&#45;transport_fabric</title>
<path fill="none" stroke="#2563eb" stroke-width="1.8" d="M901.88,-322.05C979.39,-337.73 1091.06,-360.31 1168.53,-375.98"/>
</g>
<!-- node4_host -->
<g id="node15" class="node">
<title>node4_host</title>
<ellipse fill="#fef3c7" stroke="#374151" cx="144.78" cy="-214" rx="77.91" ry="18"/>
<text text-anchor="middle" x="144.78" y="-211.5" font-family="Arial" font-size="10.00">node4_host\nBranch client</text>
</g>
<!-- lsw4 -->
<g id="node16" class="node">
<title>lsw4</title>
<polygon fill="#dbeafe" stroke="#374151" points="493.1,-232 361.53,-214 493.1,-196 624.67,-214 493.1,-232"/>
<text text-anchor="middle" x="493.1" y="-211.5" font-family="Arial" font-size="10.00">lsw4\nOpenFlow 1.3\nDPID 104</text>
</g>
<!-- node4_host&#45;&#45;lsw4 -->
<g id="edge8" class="edge">
<title>node4_host&#45;&#45;lsw4</title>
<path fill="none" stroke="#374151" d="M222.64,-214C263.39,-214 314.58,-214 361.36,-214"/>
</g>
<!-- node4 -->
<g id="node17" class="node">
<title>node4</title>
<path fill="#ede9fe" stroke="#374151" d="M914.63,-232C914.63,-232 708.63,-232 708.63,-232 702.63,-232 696.63,-226 696.63,-220 696.63,-220 696.63,-208 696.63,-208 696.63,-202 702.63,-196 708.63,-196 708.63,-196 914.63,-196 914.63,-196 920.63,-196 926.63,-202 926.63,-208 926.63,-208 926.63,-220 926.63,-220 926.63,-226 920.63,-232 914.63,-232"/>
<text text-anchor="middle" x="811.63" y="-211.5" font-family="Arial" font-size="10.00">node4\nEdge router\nprimary hub2; standby hub1</text>
</g>
<!-- lsw4&#45;&#45;node4 -->
<g id="edge9" class="edge">
<title>lsw4&#45;&#45;node4</title>
<path fill="none" stroke="#374151" d="M624.67,-214C648.51,-214 673.22,-214 696.54,-214"/>
</g>
<!-- node4&#45;&#45;transport_fabric -->
<g id="edge17" class="edge">
<title>node4&#45;&#45;transport_fabric</title>
<path fill="none" stroke="#2563eb" stroke-width="1.8" d="M857.34,-232.08C942.63,-266.58 1127.68,-341.44 1212.96,-375.93"/>
</g>
<!-- node5_host -->
<g id="node18" class="node">
<title>node5_host</title>
<ellipse fill="#fef3c7" stroke="#374151" cx="144.78" cy="-124" rx="77.91" ry="18"/>
<text text-anchor="middle" x="144.78" y="-121.5" font-family="Arial" font-size="10.00">node5_host\nBranch client</text>
</g>
<!-- lsw5 -->
<g id="node19" class="node">
<title>lsw5</title>
<polygon fill="#dbeafe" stroke="#374151" points="493.1,-142 361.53,-124 493.1,-106 624.67,-124 493.1,-142"/>
<text text-anchor="middle" x="493.1" y="-121.5" font-family="Arial" font-size="10.00">lsw5\nOpenFlow 1.3\nDPID 105</text>
</g>
<!-- node5_host&#45;&#45;lsw5 -->
<g id="edge10" class="edge">
<title>node5_host&#45;&#45;lsw5</title>
<path fill="none" stroke="#374151" d="M222.64,-124C263.39,-124 314.58,-124 361.36,-124"/>
</g>
<!-- node5 -->
<g id="node20" class="node">
<title>node5</title>
<path fill="#ede9fe" stroke="#374151" d="M914.63,-142C914.63,-142 708.63,-142 708.63,-142 702.63,-142 696.63,-136 696.63,-130 696.63,-130 696.63,-118 696.63,-118 696.63,-112 702.63,-106 708.63,-106 708.63,-106 914.63,-106 914.63,-106 920.63,-106 926.63,-112 926.63,-118 926.63,-118 926.63,-130 926.63,-130 926.63,-136 920.63,-142 914.63,-142"/>
<text text-anchor="middle" x="811.63" y="-121.5" font-family="Arial" font-size="10.00">node5\nEdge router\nprimary hub2; standby hub1</text>
</g>
<!-- lsw5&#45;&#45;node5 -->
<g id="edge11" class="edge">
<title>lsw5&#45;&#45;node5</title>
<path fill="none" stroke="#374151" d="M624.67,-124C648.51,-124 673.22,-124 696.54,-124"/>
</g>
<!-- node5&#45;&#45;transport_fabric -->
<g id="edge18" class="edge">
<title>node5&#45;&#45;transport_fabric</title>
<path fill="none" stroke="#2563eb" stroke-width="1.8" d="M850.57,-142.03C886.38,-159.06 934.63,-182 934.63,-182 934.63,-182 1151.98,-324.66 1230.09,-375.92"/>
</g>
<!-- dc_app -->
<g id="node22" class="node">
<title>dc_app</title>
<polygon fill="#cffafe" stroke="#374151" points="1830.63,-622 1590.63,-622 1590.63,-618 1586.63,-618 1586.63,-614 1590.63,-614 1590.63,-594 1586.63,-594 1586.63,-590 1590.63,-590 1590.63,-586 1830.63,-586 1830.63,-622"/>
<polyline fill="none" stroke="#374151" points="1590.63,-618 1594.63,-618 1594.63,-614 1590.63,-614 "/>
<polyline fill="none" stroke="#374151" points="1590.63,-594 1594.63,-594 1594.63,-590 1590.63,-590 "/>
<text text-anchor="middle" x="1710.63" y="-601.5" font-family="Arial" font-size="10.00">dc_app\nCentral backup service\n10.100.0.10:8443</text>
</g>
<!-- dcbr&#45;&#45;dc_app -->
<g id="edge21" class="edge">
<title>dcbr&#45;&#45;dc_app</title>
<path fill="none" stroke="#374151" d="M1287.78,-604C1347.05,-604 1487.67,-604 1590.32,-604"/>
</g>
<!-- public_saas -->
<g id="node24" class="node">
<title>public_saas</title>
<polygon fill="#dcfce7" stroke="#374151" points="2168.63,-412 1902.63,-412 1902.63,-408 1898.63,-408 1898.63,-404 1902.63,-404 1902.63,-384 1898.63,-384 1898.63,-380 1902.63,-380 1902.63,-376 2168.63,-376 2168.63,-412"/>
<polyline fill="none" stroke="#374151" points="1902.63,-408 1906.63,-408 1906.63,-404 1902.63,-404 "/>
<polyline fill="none" stroke="#374151" points="1902.63,-384 1906.63,-384 1906.63,-380 1902.63,-380 "/>
<text text-anchor="middle" x="2035.63" y="-391.5" font-family="Arial" font-size="10.00">public_saas\nPublic collaboration SaaS\n198.18.0.10:443</text>
</g>
<!-- inetbr&#45;&#45;public_saas -->
<g id="edge23" class="edge">
<title>inetbr&#45;&#45;public_saas</title>
<path fill="none" stroke="#374151" d="M1744.98,-394C1782.22,-394 1844.81,-394 1902.31,-394"/>
</g>
<!-- s_bb -->
<g id="node25" class="node">
<title>s_bb</title>
<polygon fill="#16a34a" stroke="#374151" points="276.52,-566 210.65,-584 78.91,-584 13.05,-566 78.91,-548 210.65,-548 276.52,-566"/>
<text text-anchor="middle" x="144.78" y="-563.5" font-family="Arial" font-size="10.00" fill="white">s_bb\nBB underlay\n50.0 Mbps; 25.0 ms</text>
</g>
<!-- s_lte -->
<g id="node26" class="node">
<title>s_lte</title>
<polygon fill="#d97706" stroke="#374151" points="276.16,-627 210.47,-645 79.09,-645 13.41,-627 79.09,-609 210.47,-609 276.16,-627"/>
<text text-anchor="middle" x="144.78" y="-624.5" font-family="Arial" font-size="10.00" fill="white">s_lte\nLTE underlay\n8.0 Mbps; 60.0 ms</text>
</g>
<!-- s_mpls -->
<g id="node27" class="node">
<title>s_mpls</title>
<polygon fill="#2563eb" stroke="#374151" points="289.35,-688 217.06,-706 72.5,-706 0.22,-688 72.5,-670 217.06,-670 289.35,-688"/>
<text text-anchor="middle" x="144.78" y="-685.5" font-family="Arial" font-size="10.00" fill="white">s_mpls\nMPLS underlay\n20.0 Mbps; 4.0 ms</text>
</g>
</g>
</svg>
