<?xml version="1.0" encoding="UTF-8" standalone="no"?>
<!DOCTYPE svg PUBLIC "-//W3C//DTD SVG 1.1//EN"
 "http://www.w3.org/Graphics/SVG/1.1/DTD/svg11.dtd">
<!-- Generated by graphviz version 2.43.0 (0)
 -->
<!-- Title: sdwan_v5 Pages: 1 -->
<svg width="833pt" height="2262pt"
 viewBox="0.00 0.00 832.56 2262.00" xmlns="http://www.w3.org/2000/svg" xmlns:xlink="http://www.w3.org/1999/xlink">
<g id="graph0" class="graph" transform="scale(1 1) rotate(0) translate(18 2244)">
<title>sdwan_v5</title>
<polygon fill="white" stroke="transparent" points="-18,18 -18,-2244 814.56,-2244 814.56,18 -18,18"/>
<text text-anchor="middle" x="398.28" y="-2206" font-family="Arial" font-size="20.00">SD&#45;WAN v5 physical topology</text>
<g id="clust1" class="cluster">
<title>cluster_management</title>
<path fill="white" stroke="#9ca3af" d="M24.4,-1764C24.4,-1764 673.41,-1764 673.41,-1764 679.41,-1764 685.41,-1770 685.41,-1776 685.41,-1776 685.41,-1834 685.41,-1834 685.41,-1840 679.41,-1846 673.41,-1846 673.41,-1846 24.4,-1846 24.4,-1846 18.4,-1846 12.4,-1840 12.4,-1834 12.4,-1834 12.4,-1776 12.4,-1776 12.4,-1770 18.4,-1764 24.4,-1764"/>
<text text-anchor="middle" x="348.9" y="-1826" font-family="Arial" font-size="20.00">Management</text>
</g>
<g id="clust2" class="cluster">
<title>cluster_hubs</title>
<path fill="white" stroke="#9ca3af" d="M32,-875C32,-875 230,-875 230,-875 236,-875 242,-881 242,-887 242,-887 242,-1006 242,-1006 242,-1012 236,-1018 230,-1018 230,-1018 32,-1018 32,-1018 26,-1018 20,-1012 20,-1006 20,-1006 20,-887 20,-887 20,-881 26,-875 32,-875"/>
<text text-anchor="middle" x="131" y="-998" font-family="Arial" font-size="20.00">Dual active&#45;active hubs</text>
</g>
<g id="clust3" class="cluster">
<title>cluster_underlay</title>
<path fill="white" stroke="#9ca3af" d="M495,-895C495,-895 776.56,-895 776.56,-895 782.56,-895 788.56,-901 788.56,-907 788.56,-907 788.56,-1087 788.56,-1087 788.56,-1093 782.56,-1099 776.56,-1099 776.56,-1099 495,-1099 495,-1099 489,-1099 483,-1093 483,-1087 483,-1087 483,-907 483,-907 483,-901 489,-895 495,-895"/>
<text text-anchor="middle" x="635.78" y="-1079" font-family="Arial" font-size="20.00">Transport underlay</text>
</g>
<g id="clust4" class="cluster">
<title>cluster_branch_node1</title>
<path fill="white" stroke="#9ca3af" d="M20,-2045C20,-2045 763.32,-2045 763.32,-2045 769.32,-2045 775.32,-2051 775.32,-2057 775.32,-2057 775.32,-2176 775.32,-2176 775.32,-2182 769.32,-2188 763.32,-2188 763.32,-2188 20,-2188 20,-2188 14,-2188 8,-2182 8,-2176 8,-2176 8,-2057 8,-2057 8,-2051 14,-2045 20,-2045"/>
<text text-anchor="middle" x="391.66" y="-2168" font-family="Arial" font-size="20.00">node1 LAN (10.1.0.0/24)</text>
</g>
<g id="clust5" class="cluster">
<title>cluster_branch_node2</title>
<path fill="white" stroke="#9ca3af" d="M20,-1894C20,-1894 763.32,-1894 763.32,-1894 769.32,-1894 775.32,-1900 775.32,-1906 775.32,-1906 775.32,-2025 775.32,-2025 775.32,-2031 769.32,-2037 763.32,-2037 763.32,-2037 20,-2037 20,-2037 14,-2037 8,-2031 8,-2025 8,-2025 8,-1906 8,-1906 8,-1900 14,-1894 20,-1894"/>
<text text-anchor="middle" x="391.66" y="-2017" font-family="Arial" font-size="20.00">node2 LAN (10.2.0.0/24)</text>
</g>
<g id="clust6" class="cluster">
<title>cluster_branch_node3</title>
<path fill="white" stroke="#9ca3af" d="M20,-1428C20,-1428 763.32,-1428 763.32,-1428 769.32,-1428 775.32,-1434 775.32,-1440 775.32,-1440 775.32,-1559 775.32,-1559 775.32,-1565 769.32,-1571 763.32,-1571 763.32,-1571 20,-1571 20,-1571 14,-1571 8,-1565 8,-1559 8,-1559 8,-1440 8,-1440 8,-1434 14,-1428 20,-1428"/>
<text text-anchor="middle" x="391.66" y="-1551" font-family="Arial" font-size="20.00">node3 LAN (10.3.0.0/24)</text>
</g>
<g id="clust7" class="cluster">
<title>cluster_branch_node4</title>
<path fill="white" stroke="#9ca3af" d="M20,-377C20,-377 763.32,-377 763.32,-377 769.32,-377 775.32,-383 775.32,-389 775.32,-389 775.32,-508 775.32,-508 775.32,-514 769.32,-520 763.32,-520 763.32,-520 20,-520 20,-520 14,-520 8,-514 8,-508 8,-508 8,-389 8,-389 8,-383 14,-377 20,-377"/>
<text text-anchor="middle" x="391.66" y="-500" font-family="Arial" font-size="20.00">node4 LAN (10.4.0.0/24)</text>
</g>
<g id="clust8" class="cluster">
<title>cluster_branch_node5</title>
<path fill="white" stroke="#9ca3af" d="M20,-226C20,-226 763.32,-226 763.32,-226 769.32,-226 775.32,-232 775.32,-238 775.32,-238 775.32,-357 775.32,-357 775.32,-363 769.32,-369 763.32,-369 763.32,-369 20,-369 20,-369 14,-369 8,-363 8,-357 8,-357 8,-238 8,-238 8,-232 14,-226 20,-226"/>
<text text-anchor="middle" x="391.66" y="-349" font-family="Arial" font-size="20.00">node5 LAN (10.5.0.0/24)</text>
</g>
<g id="clust9" class="cluster">
<title>cluster_data_center</title>
<path fill="white" stroke="#9ca3af" d="M50.5,-98C50.5,-98 660.92,-98 660.92,-98 666.92,-98 672.92,-104 672.92,-110 672.92,-110 672.92,-168 672.92,-168 672.92,-174 666.92,-180 660.92,-180 660.92,-180 50.5,-180 50.5,-180 44.5,-180 38.5,-174 38.5,-168 38.5,-168 38.5,-110 38.5,-110 38.5,-104 44.5,-98 50.5,-98"/>
<text text-anchor="middle" x="355.71" y="-160" font-family="Arial" font-size="20.00">Data Center (10.100.0.0/24)</text>
</g>
<g id="clust10" class="cluster">
<title>cluster_saas</title>
<path fill="white" stroke="#9ca3af" d="M42,-8C42,-8 665.91,-8 665.91,-8 671.91,-8 677.91,-14 677.91,-20 677.91,-20 677.91,-78 677.91,-78 677.91,-84 671.91,-90 665.91,-90 665.91,-90 42,-90 42,-90 36,-90 30,-84 30,-78 30,-78 30,-20 30,-20 30,-14 36,-8 42,-8"/>
<text text-anchor="middle" x="353.96" y="-70" font-family="Arial" font-size="20.00">Simulated SaaS (198.18.0.0/24)</text>
</g>
<!-- mgmtroot -->
<g id="node1" class="node">
<title>mgmtroot</title>
<polygon fill="#e5e7eb" stroke="#374151" points="241.7,-1795.56 131,-1808 20.3,-1795.56 20.4,-1775.44 241.6,-1775.44 241.7,-1795.56"/>
<text text-anchor="middle" x="131" y="-1787.5" font-family="Arial" font-size="10.00">mgmtroot\ncontroller / services</text>
</g>
<!-- mgmtbr -->
<g id="node2" class="node">
<title>mgmtbr</title>
<polygon fill="#e5e7eb" stroke="#374151" points="635.78,-1808 594.03,-1790 635.78,-1772 677.53,-1790 635.78,-1808"/>
<text text-anchor="middle" x="635.78" y="-1787.5" font-family="Arial" font-size="10.00">mgmtbr</text>
</g>
<!-- mgmtroot&#45;&#45;mgmtbr -->
<g id="edge1" class="edge">
<title>mgmtroot&#45;&#45;mgmtbr</title>
<path fill="none" stroke="#6b7280" stroke-dasharray="5,2" d="M241.72,-1790C352.53,-1790 517.86,-1790 593.87,-1790"/>
<text text-anchor="middle" x="368.5" y="-1792.6" font-family="Arial" font-size="8.00">mgmt&#45;root &lt;&#45;&gt; mgmtbr&#45;root\n172.30.0.254/24</text>
</g>
<!-- hub1 -->
<g id="node3" class="node">
<title>hub1</title>
<path fill="#ede9fe" stroke="#374151" d="M180,-980C180,-980 82,-980 82,-980 76,-980 70,-974 70,-968 70,-968 70,-956 70,-956 70,-950 76,-944 82,-944 82,-944 180,-944 180,-944 186,-944 192,-950 192,-956 192,-956 192,-968 192,-968 192,-974 186,-980 180,-980"/>
<text text-anchor="middle" x="131" y="-959.5" font-family="Arial" font-size="10.00">hub1\nActive&#45;active hub</text>
</g>
<!-- hub1&#45;&#45;mgmtbr -->
<g id="edge2" class="edge">
<title>hub1&#45;&#45;mgmtbr</title>
<path fill="none" stroke="#374151" d="M136.47,-980.03C157.55,-1065.08 246,-1422 246,-1422 246,-1422 282,-1692 282,-1692 282,-1692 455,-1722 455,-1722 455,-1722 564.73,-1763.5 612.74,-1781.66"/>
<text text-anchor="middle" x="368.5" y="-1724.6" font-family="Arial" font-size="8.00">hub1&#45;mgmt &lt;&#45;&gt; mgmtbr&#45;h1\n172.30.0.1/24</text>
</g>
<!-- s_mpls -->
<g id="node5" class="node">
<title>s_mpls</title>
<polygon fill="#2563eb" stroke="#374151" points="780.35,-1043 708.06,-1061 563.5,-1061 491.22,-1043 563.5,-1025 708.06,-1025 780.35,-1043"/>
<text text-anchor="middle" x="635.78" y="-1040.5" font-family="Arial" font-size="10.00" fill="white">s_mpls\nMPLS underlay\n20.0 Mbps; 4.0 ms</text>
</g>
<!-- hub1&#45;&#45;s_mpls -->
<g id="edge9" class="edge">
<title>hub1&#45;&#45;s_mpls</title>
<path fill="none" stroke="#2563eb" stroke-width="1.8" d="M150.39,-980.03C190.45,-1019.28 282,-1109 282,-1109 282,-1109 455,-1109 455,-1109 455,-1109 532.43,-1080.58 585.66,-1061.03"/>
<text text-anchor="middle" x="368.5" y="-1111.6" font-family="Arial" font-size="8.00">hub1&#45;mpls &lt;&#45;&gt; s_mpls&#45;h1\n192.168.10.1/24</text>
</g>
<!-- s_bb -->
<g id="node6" class="node">
<title>s_bb</title>
<polygon fill="#16a34a" stroke="#374151" points="767.52,-982 701.65,-1000 569.91,-1000 504.05,-982 569.91,-964 701.65,-964 767.52,-982"/>
<text text-anchor="middle" x="635.78" y="-979.5" font-family="Arial" font-size="10.00" fill="white">s_bb\nBB underlay\n50.0 Mbps; 25.0 ms</text>
</g>
<!-- hub1&#45;&#45;s_bb -->
<g id="edge10" class="edge">
<title>hub1&#45;&#45;s_bb</title>
<path fill="none" stroke="#16a34a" stroke-width="1.8" d="M192.15,-964.39C272.95,-967.61 418.17,-973.38 520.18,-977.44"/>
<text text-anchor="middle" x="368.5" y="-977.6" font-family="Arial" font-size="8.00">hub1&#45;bb &lt;&#45;&gt; s_bb&#45;h1\n192.168.20.1/24</text>
</g>
<!-- s_lte -->
<g id="node7" class="node">
<title>s_lte</title>
<polygon fill="#d97706" stroke="#374151" points="767.16,-921 701.47,-939 570.09,-939 504.41,-921 570.09,-903 701.47,-903 767.16,-921"/>
<text text-anchor="middle" x="635.78" y="-918.5" font-family="Arial" font-size="10.00" fill="white">s_lte\nLTE underlay\n8.0 Mbps; 60.0 ms</text>
</g>
<!-- hub1&#45;&#45;s_lte -->
<g id="edge11" class="edge">
<title>hub1&#45;&#45;s_lte</title>
<path fill="none" stroke="#d97706" stroke-width="1.8" d="M192.15,-957.1C276.73,-950.2 431.9,-937.54 534.2,-929.2"/>
<text text-anchor="middle" x="368.5" y="-951.6" font-family="Arial" font-size="8.00">hub1&#45;lte &lt;&#45;&gt; s_lte&#45;h1\n192.168.30.1/24</text>
</g>
<!-- dcbr -->
<g id="node23" class="node">
<title>dcbr</title>
<polygon fill="#e5e7eb" stroke="#374151" points="635.78,-142 606.51,-124 635.78,-106 665.06,-124 635.78,-142"/>
<text text-anchor="middle" x="635.78" y="-121.5" font-family="Arial" font-size="10.00">dcbr</text>
</g>
<!-- hub1&#45;&#45;dcbr -->
<g id="edge40" class="edge">
<title>hub1&#45;&#45;dcbr</title>
<path fill="none" stroke="#374151" d="M192,-945.68C219.47,-938.21 246,-931 246,-931 246,-931 282,-211 282,-211 282,-211 455,-180 455,-180 455,-180 569.72,-144.26 615.88,-129.89"/>
<text text-anchor="middle" x="368.5" y="-213.6" font-family="Arial" font-size="8.00">hub1&#45;dc &lt;&#45;&gt; dcbr&#45;h1\n10.100.0.1/24</text>
</g>
<!-- hub2 -->
<g id="node4" class="node">
<title>hub2</title>
<path fill="#ede9fe" stroke="#374151" d="M180,-919C180,-919 82,-919 82,-919 76,-919 70,-913 70,-907 70,-907 70,-895 70,-895 70,-889 76,-883 82,-883 82,-883 180,-883 180,-883 186,-883 192,-889 192,-895 192,-895 192,-907 192,-907 192,-913 186,-919 180,-919"/>
<text text-anchor="middle" x="131" y="-898.5" font-family="Arial" font-size="10.00">hub2\nActive&#45;active hub</text>
</g>
<!-- hub2&#45;&#45;mgmtbr -->
<g id="edge3" class="edge">
<title>hub2&#45;&#45;mgmtbr</title>
<path fill="none" stroke="#374151" d="M192,-916.79C219.47,-924.02 246,-931 246,-931 246,-931 282,-1653 282,-1653 282,-1653 455,-1683 455,-1683 455,-1683 572.55,-1752.96 617.54,-1779.74"/>
<text text-anchor="middle" x="368.5" y="-1685.6" font-family="Arial" font-size="8.00">hub2&#45;mgmt &lt;&#45;&gt; mgmtbr&#45;h2\n172.30.0.2/24</text>
</g>
<!-- hub2&#45;&#45;s_mpls -->
<g id="edge12" class="edge">
<title>hub2&#45;&#45;s_mpls</title>
<path fill="none" stroke="#2563eb" stroke-width="1.8" d="M192,-916.79C219.47,-924.02 246,-931 246,-931 246,-931 282,-990 282,-990 282,-990 440.33,-1013.79 544.85,-1029.49"/>
<text text-anchor="middle" x="368.5" y="-1017.6" font-family="Arial" font-size="8.00">hub2&#45;mpls &lt;&#45;&gt; s_mpls&#45;h2\n192.168.10.2/24</text>
</g>
<!-- hub2&#45;&#45;s_bb -->
<g id="edge13" class="edge">
<title>hub2&#45;&#45;s_bb</title>
<path fill="none" stroke="#16a34a" stroke-width="1.8" d="M192.15,-886.97C233.88,-877.23 282,-866 282,-866 282,-866 455,-866 455,-866 455,-866 483,-951 483,-951 483,-951 521.54,-958.87 559.78,-966.68"/>
<text text-anchor="middle" x="368.5" y="-868.6" font-family="Arial" font-size="8.00">hub2&#45;bb &lt;&#45;&gt; s_bb&#45;h2\n192.168.20.2/24</text>
</g>
<!-- hub2&#45;&#45;s_lte -->
<g id="edge14" class="edge">
<title>hub2&#45;&#45;s_lte</title>
<path fill="none" stroke="#d97706" stroke-width="1.8" d="M168.69,-882.9C213.1,-860.99 282,-827 282,-827 282,-827 455,-827 455,-827 455,-827 547.88,-875.56 600.12,-902.88"/>
<text text-anchor="middle" x="368.5" y="-829.6" font-family="Arial" font-size="8.00">hub2&#45;lte &lt;&#45;&gt; s_lte&#45;h2\n192.168.30.2/24</text>
</g>
<!-- hub2&#45;&#45;dcbr -->
<g id="edge41" class="edge">
<title>hub2&#45;&#45;dcbr</title>
<path fill="none" stroke="#374151" d="M137.5,-882.91C160.27,-808.01 246,-526 246,-526 246,-526 282,-171 282,-171 282,-171 532.57,-137.62 611.36,-127.12"/>
<text text-anchor="middle" x="368.5" y="-173.6" font-family="Arial" font-size="8.00">hub2&#45;dc &lt;&#45;&gt; dcbr&#45;h2\n10.100.0.2/24</text>
</g>
<!-- node1_host -->
<g id="node8" class="node">
<title>node1_host</title>
<ellipse fill="#fef3c7" stroke="#374151" cx="131" cy="-2132" rx="77.91" ry="18"/>
<text text-anchor="middle" x="131" y="-2129.5" font-family="Arial" font-size="10.00">node1_host\nBranch client</text>
</g>
<!-- lsw1 -->
<g id="node9" class="node">
<title>lsw1</title>
<polygon fill="#dbeafe" stroke="#374151" points="635.78,-2124 504.21,-2106 635.78,-2088 767.35,-2106 635.78,-2124"/>
<text text-anchor="middle" x="635.78" y="-2103.5" font-family="Arial" font-size="10.00">lsw1\nOpenFlow 1.3\nDPID 101</text>
</g>
<!-- node1_host&#45;&#45;lsw1 -->
<g id="edge31" class="edge">
<title>node1_host&#45;&#45;lsw1</title>
<path fill="none" stroke="#374151" d="M207,-2128.12C295.69,-2123.53 443.44,-2115.89 539.98,-2110.9"/>
<text text-anchor="middle" x="368.5" y="-2125.6" font-family="Arial" font-size="8.00">node1_host&#45;lan &lt;&#45;&gt; lsw1&#45;h\n10.1.0.10/24</text>
</g>
<!-- node1 -->
<g id="node10" class="node">
<title>node1</title>
<path fill="#ede9fe" stroke="#374151" d="M234,-2089C234,-2089 28,-2089 28,-2089 22,-2089 16,-2083 16,-2077 16,-2077 16,-2065 16,-2065 16,-2059 22,-2053 28,-2053 28,-2053 234,-2053 234,-2053 240,-2053 246,-2059 246,-2065 246,-2065 246,-2077 246,-2077 246,-2083 240,-2089 234,-2089"/>
<text text-anchor="middle" x="131" y="-2068.5" font-family="Arial" font-size="10.00">node1\nEdge router\nprimary hub1; standby hub2</text>
</g>
<!-- node1&#45;&#45;mgmtbr -->
<g id="edge4" class="edge">
<title>node1&#45;&#45;mgmtbr</title>
<path fill="none" stroke="#374151" d="M205.49,-2052.95C227.55,-2047.53 246,-2043 246,-2043 246,-2043 282,-1879 282,-1879 282,-1879 455,-1848 455,-1848 455,-1848 562.55,-1813.3 611.28,-1797.58"/>
<text text-anchor="middle" x="368.5" y="-1881.6" font-family="Arial" font-size="8.00">node1&#45;mgmt &lt;&#45;&gt; mgmtbr&#45;n1\n172.30.0.11/24</text>
</g>
<!-- node1&#45;&#45;s_mpls -->
<g id="edge15" class="edge">
<title>node1&#45;&#45;s_mpls</title>
<path fill="none" stroke="#2563eb" stroke-width="1.8" d="M205.49,-2052.95C227.55,-2047.53 246,-2043 246,-2043 246,-2043 282,-1413 282,-1413 282,-1413 455,-1382 455,-1382 455,-1382 587.77,-1131.64 625.12,-1061.23"/>
<text text-anchor="middle" x="368.5" y="-1415.6" font-family="Arial" font-size="8.00">node1&#45;mpls &lt;&#45;&gt; s_mpls&#45;n1\n192.168.10.11/24</text>
</g>
<!-- node1&#45;&#45;s_bb -->
<g id="edge16" class="edge">
<title>node1&#45;&#45;s_bb</title>
<path fill="none" stroke="#16a34a" stroke-width="1.8" d="M205.49,-2052.95C227.55,-2047.53 246,-2043 246,-2043 246,-2043 282,-1334 282,-1334 282,-1334 455,-1304 455,-1304 455,-1304 483,-1012 483,-1012 483,-1012 520.95,-1004.5 558.89,-997"/>
<text text-anchor="middle" x="368.5" y="-1336.6" font-family="Arial" font-size="8.00">node1&#45;bb &lt;&#45;&gt; s_bb&#45;n1\n192.168.20.11/24</text>
</g>
<!-- node1&#45;&#45;s_lte -->
<g id="edge17" class="edge">
<title>node1&#45;&#45;s_lte</title>
<path fill="none" stroke="#d97706" stroke-width="1.8" d="M205.49,-2052.95C227.55,-2047.53 246,-2043 246,-2043 246,-2043 282,-1295 282,-1295 282,-1295 455,-1265 455,-1265 455,-1265 483,-951 483,-951 483,-951 520.95,-943.5 558.89,-936"/>
<text text-anchor="middle" x="368.5" y="-1297.6" font-family="Arial" font-size="8.00">node1&#45;lte &lt;&#45;&gt; s_lte&#45;n1\n192.168.30.11/24</text>
</g>
<!-- node1&#45;&#45;lsw1 -->
<g id="edge30" class="edge">
<title>node1&#45;&#45;lsw1</title>
<path fill="none" stroke="#374151" d="M246.09,-2078.94C337.79,-2085.33 464.65,-2094.16 548.16,-2099.97"/>
<text text-anchor="middle" x="368.5" y="-2094.6" font-family="Arial" font-size="8.00">node1&#45;lan &lt;&#45;&gt; lsw1&#45;r\n10.1.0.1/24</text>
</g>
<!-- node2_host -->
<g id="node11" class="node">
<title>node2_host</title>
<ellipse fill="#fef3c7" stroke="#374151" cx="131" cy="-1981" rx="77.91" ry="18"/>
<text text-anchor="middle" x="131" y="-1978.5" font-family="Arial" font-size="10.00">node2_host\nBranch client</text>
</g>
<!-- lsw2 -->
<g id="node12" class="node">
<title>lsw2</title>
<polygon fill="#dbeafe" stroke="#374151" points="635.78,-1973 504.21,-1955 635.78,-1937 767.35,-1955 635.78,-1973"/>
<text text-anchor="middle" x="635.78" y="-1952.5" font-family="Arial" font-size="10.00">lsw2\nOpenFlow 1.3\nDPID 102</text>
</g>
<!-- node2_host&#45;&#45;lsw2 -->
<g id="edge33" class="edge">
<title>node2_host&#45;&#45;lsw2</title>
<path fill="none" stroke="#374151" d="M207,-1977.12C295.69,-1972.53 443.44,-1964.89 539.98,-1959.9"/>
<text text-anchor="middle" x="368.5" y="-1974.6" font-family="Arial" font-size="8.00">node2_host&#45;lan &lt;&#45;&gt; lsw2&#45;h\n10.2.0.10/24</text>
</g>
<!-- node2 -->
<g id="node13" class="node">
<title>node2</title>
<path fill="#ede9fe" stroke="#374151" d="M234,-1938C234,-1938 28,-1938 28,-1938 22,-1938 16,-1932 16,-1926 16,-1926 16,-1914 16,-1914 16,-1908 22,-1902 28,-1902 28,-1902 234,-1902 234,-1902 240,-1902 246,-1908 246,-1914 246,-1914 246,-1926 246,-1926 246,-1932 240,-1938 234,-1938"/>
<text text-anchor="middle" x="131" y="-1917.5" font-family="Arial" font-size="10.00">node2\nEdge router\nprimary hub1; standby hub2</text>
</g>
<!-- node2&#45;&#45;mgmtbr -->
<g id="edge5" class="edge">
<title>node2&#45;&#45;mgmtbr</title>
<path fill="none" stroke="#374151" d="M165.66,-1901.82C209.89,-1877.94 282,-1839 282,-1839 282,-1839 517.7,-1806.26 603.78,-1794.31"/>
<text text-anchor="middle" x="368.5" y="-1841.6" font-family="Arial" font-size="8.00">node2&#45;mgmt &lt;&#45;&gt; mgmtbr&#45;n2\n172.30.0.12/24</text>
</g>
<!-- node2&#45;&#45;s_mpls -->
<g id="edge18" class="edge">
<title>node2&#45;&#45;s_mpls</title>
<path fill="none" stroke="#2563eb" stroke-width="1.8" d="M162.25,-1901.96C196.02,-1881.81 246,-1852 246,-1852 246,-1852 282,-1373 282,-1373 282,-1373 455,-1343 455,-1343 455,-1343 584.77,-1126.45 623.81,-1061.31"/>
<text text-anchor="middle" x="368.5" y="-1375.6" font-family="Arial" font-size="8.00">node2&#45;mpls &lt;&#45;&gt; s_mpls&#45;n2\n192.168.10.12/24</text>
</g>
<!-- node2&#45;&#45;s_bb -->
<g id="edge19" class="edge">
<title>node2&#45;&#45;s_bb</title>
<path fill="none" stroke="#16a34a" stroke-width="1.8" d="M162.25,-1901.96C196.02,-1881.81 246,-1852 246,-1852 246,-1852 282,-1217 282,-1217 282,-1217 455,-1187 455,-1187 455,-1187 483,-1012 483,-1012 483,-1012 520.95,-1004.5 558.89,-997"/>
<text text-anchor="middle" x="368.5" y="-1219.6" font-family="Arial" font-size="8.00">node2&#45;bb &lt;&#45;&gt; s_bb&#45;n2\n192.168.20.12/24</text>
</g>
<!-- node2&#45;&#45;s_lte -->
<g id="edge20" class="edge">
<title>node2&#45;&#45;s_lte</title>
<path fill="none" stroke="#d97706" stroke-width="1.8" d="M162.25,-1901.96C196.02,-1881.81 246,-1852 246,-1852 246,-1852 282,-1178 282,-1178 282,-1178 455,-1124 455,-1124 455,-1124 483,-951 483,-951 483,-951 520.95,-943.5 558.89,-936"/>
<text text-anchor="middle" x="368.5" y="-1180.6" font-family="Arial" font-size="8.00">node2&#45;lte &lt;&#45;&gt; s_lte&#45;n2\n192.168.30.12/24</text>
</g>
<!-- node2&#45;&#45;lsw2 -->
<g id="edge32" class="edge">
<title>node2&#45;&#45;lsw2</title>
<path fill="none" stroke="#374151" d="M246.09,-1927.94C337.79,-1934.33 464.65,-1943.16 548.16,-1948.97"/>
<text text-anchor="middle" x="368.5" y="-1943.6" font-family="Arial" font-size="8.00">node2&#45;lan &lt;&#45;&gt; lsw2&#45;r\n10.2.0.1/24</text>
</g>
<!-- node3_host -->
<g id="node14" class="node">
<title>node3_host</title>
<ellipse fill="#fef3c7" stroke="#374151" cx="131" cy="-1515" rx="77.91" ry="18"/>
<text text-anchor="middle" x="131" y="-1512.5" font-family="Arial" font-size="10.00">node3_host\nBranch client</text>
</g>
<!-- lsw3 -->
<g id="node15" class="node">
<title>lsw3</title>
<polygon fill="#dbeafe" stroke="#374151" points="635.78,-1507 504.21,-1489 635.78,-1471 767.35,-1489 635.78,-1507"/>
<text text-anchor="middle" x="635.78" y="-1486.5" font-family="Arial" font-size="10.00">lsw3\nOpenFlow 1.3\nDPID 103</text>
</g>
<!-- node3_host&#45;&#45;lsw3 -->
<g id="edge35" class="edge">
<title>node3_host&#45;&#45;lsw3</title>
<path fill="none" stroke="#374151" d="M207,-1511.12C295.69,-1506.53 443.44,-1498.89 539.98,-1493.9"/>
<text text-anchor="middle" x="368.5" y="-1509.6" font-family="Arial" font-size="8.00">node3_host&#45;lan &lt;&#45;&gt; lsw3&#45;h\n10.3.0.10/24</text>
</g>
<!-- node3 -->
<g id="node16" class="node">
<title>node3</title>
<path fill="#ede9fe" stroke="#374151" d="M234,-1472C234,-1472 28,-1472 28,-1472 22,-1472 16,-1466 16,-1460 16,-1460 16,-1448 16,-1448 16,-1442 22,-1436 28,-1436 28,-1436 234,-1436 234,-1436 240,-1436 246,-1442 246,-1448 246,-1448 246,-1460 246,-1460 246,-1466 240,-1472 234,-1472"/>
<text text-anchor="middle" x="131" y="-1451.5" font-family="Arial" font-size="10.00">node3\nEdge router\nprimary hub1; standby hub2</text>
</g>
<!-- node3&#45;&#45;mgmtbr -->
<g id="edge6" class="edge">
<title>node3&#45;&#45;mgmtbr</title>
<path fill="none" stroke="#374151" d="M200.62,-1472.06C224.76,-1478.41 246,-1484 246,-1484 246,-1484 282,-1731 282,-1731 282,-1731 520.52,-1770.89 605.31,-1785.07"/>
<text text-anchor="middle" x="368.5" y="-1760.6" font-family="Arial" font-size="8.00">node3&#45;mgmt &lt;&#45;&gt; mgmtbr&#45;n3\n172.30.0.13/24</text>
</g>
<!-- node3&#45;&#45;s_mpls -->
<g id="edge21" class="edge">
<title>node3&#45;&#45;s_mpls</title>
<path fill="none" stroke="#2563eb" stroke-width="1.8" d="M145.84,-1435.73C182.98,-1386.71 282,-1256 282,-1256 282,-1256 455,-1226 455,-1226 455,-1226 571.41,-1107.5 616.89,-1061.22"/>
<text text-anchor="middle" x="368.5" y="-1258.6" font-family="Arial" font-size="8.00">node3&#45;mpls &lt;&#45;&gt; s_mpls&#45;n3\n192.168.10.13/24</text>
</g>
<!-- node3&#45;&#45;s_bb -->
<g id="edge22" class="edge">
<title>node3&#45;&#45;s_bb</title>
<path fill="none" stroke="#16a34a" stroke-width="1.8" d="M139.64,-1435.96C170.21,-1363.82 282,-1100 282,-1100 282,-1100 455,-1070 455,-1070 455,-1070 483,-1012 483,-1012 483,-1012 520.95,-1004.5 558.89,-997"/>
<text text-anchor="middle" x="368.5" y="-1102.6" font-family="Arial" font-size="8.00">node3&#45;bb &lt;&#45;&gt; s_bb&#45;n3\n192.168.20.13/24</text>
</g>
<!-- node3&#45;&#45;s_lte -->
<g id="edge23" class="edge">
<title>node3&#45;&#45;s_lte</title>
<path fill="none" stroke="#d97706" stroke-width="1.8" d="M138.93,-1435.83C168.43,-1358.54 282,-1061 282,-1061 282,-1061 455,-1030 455,-1030 455,-1030 483,-951 483,-951 483,-951 520.95,-943.5 558.89,-936"/>
<text text-anchor="middle" x="368.5" y="-1063.6" font-family="Arial" font-size="8.00">node3&#45;lte &lt;&#45;&gt; s_lte&#45;n3\n192.168.30.13/24</text>
</g>
<!-- node3&#45;&#45;lsw3 -->
<g id="edge34" class="edge">
<title>node3&#45;&#45;lsw3</title>
<path fill="none" stroke="#374151" d="M246.09,-1461.94C337.79,-1468.33 464.65,-1477.16 548.16,-1482.97"/>
<text text-anchor="middle" x="368.5" y="-1478.6" font-family="Arial" font-size="8.00">node3&#45;lan &lt;&#45;&gt; lsw3&#45;r\n10.3.0.1/24</text>
</g>
<!-- node4_host -->
<g id="node17" class="node">
<title>node4_host</title>
<ellipse fill="#fef3c7" stroke="#374151" cx="131" cy="-403" rx="77.91" ry="18"/>
<text text-anchor="middle" x="131" y="-400.5" font-family="Arial" font-size="10.00">node4_host\nBranch client</text>
</g>
<!-- lsw4 -->
<g id="node18" class="node">
<title>lsw4</title>
<polygon fill="#dbeafe" stroke="#374151" points="635.78,-456 504.21,-438 635.78,-420 767.35,-438 635.78,-456"/>
<text text-anchor="middle" x="635.78" y="-435.5" font-family="Arial" font-size="10.00">lsw4\nOpenFlow 1.3\nDPID 104</text>
</g>
<!-- node4_host&#45;&#45;lsw4 -->
<g id="edge37" class="edge">
<title>node4_host&#45;&#45;lsw4</title>
<path fill="none" stroke="#374151" d="M205.65,-408.13C296.61,-414.46 451.15,-425.22 547.84,-431.95"/>
<text text-anchor="middle" x="368.5" y="-427.6" font-family="Arial" font-size="8.00">node4_host&#45;lan &lt;&#45;&gt; lsw4&#45;h\n10.4.0.10/24</text>
</g>
<!-- node4 -->
<g id="node19" class="node">
<title>node4</title>
<path fill="#ede9fe" stroke="#374151" d="M234,-482C234,-482 28,-482 28,-482 22,-482 16,-476 16,-470 16,-470 16,-458 16,-458 16,-452 22,-446 28,-446 28,-446 234,-446 234,-446 240,-446 246,-452 246,-458 246,-458 246,-470 246,-470 246,-476 240,-482 234,-482"/>
<text text-anchor="middle" x="131" y="-461.5" font-family="Arial" font-size="10.00">node4\nEdge router\nprimary hub2; standby hub1</text>
</g>
<!-- node4&#45;&#45;mgmtbr -->
<g id="edge7" class="edge">
<title>node4&#45;&#45;mgmtbr</title>
<path fill="none" stroke="#374151" d="M137.12,-482.19C159.3,-560.99 246,-869 246,-869 246,-869 282,-1614 282,-1614 282,-1614 455,-1644 455,-1644 455,-1644 577.71,-1743.65 620.37,-1778.3"/>
<text text-anchor="middle" x="368.5" y="-1646.6" font-family="Arial" font-size="8.00">node4&#45;mgmt &lt;&#45;&gt; mgmtbr&#45;n4\n172.30.0.14/24</text>
</g>
<!-- node4&#45;&#45;s_mpls -->
<g id="edge24" class="edge">
<title>node4&#45;&#45;s_mpls</title>
<path fill="none" stroke="#2563eb" stroke-width="1.8" d="M138.64,-482.19C167.67,-561.73 282,-875 282,-875 282,-875 455,-922 455,-922 455,-922 483,-1012 483,-1012 483,-1012 518.9,-1019.33 555.78,-1026.86"/>
<text text-anchor="middle" x="368.5" y="-924.6" font-family="Arial" font-size="8.00">node4&#45;mpls &lt;&#45;&gt; s_mpls&#45;n4\n192.168.10.14/24</text>
</g>
<!-- node4&#45;&#45;s_bb -->
<g id="edge25" class="edge">
<title>node4&#45;&#45;s_bb</title>
<path fill="none" stroke="#16a34a" stroke-width="1.8" d="M142.79,-482.34C177.18,-540.81 282,-719 282,-719 282,-719 455,-749 455,-749 455,-749 483,-951 483,-951 483,-951 521.54,-958.87 559.78,-966.68"/>
<text text-anchor="middle" x="368.5" y="-751.6" font-family="Arial" font-size="8.00">node4&#45;bb &lt;&#45;&gt; s_bb&#45;n4\n192.168.20.14/24</text>
</g>
<!-- node4&#45;&#45;s_lte -->
<g id="edge26" class="edge">
<title>node4&#45;&#45;s_lte</title>
<path fill="none" stroke="#d97706" stroke-width="1.8" d="M144.53,-482.04C180.58,-533.96 282,-680 282,-680 282,-680 455,-710 455,-710 455,-710 575.4,-851.31 619.14,-902.64"/>
<text text-anchor="middle" x="368.5" y="-712.6" font-family="Arial" font-size="8.00">node4&#45;lte &lt;&#45;&gt; s_lte&#45;n4\n192.168.30.14/24</text>
</g>
<!-- node4&#45;&#45;lsw4 -->
<g id="edge36" class="edge">
<title>node4&#45;&#45;lsw4</title>
<path fill="none" stroke="#374151" d="M246.09,-458.1C334.75,-453.52 456.27,-447.23 539.7,-442.92"/>
<text text-anchor="middle" x="368.5" y="-458.6" font-family="Arial" font-size="8.00">node4&#45;lan &lt;&#45;&gt; lsw4&#45;r\n10.4.0.1/24</text>
</g>
<!-- node5_host -->
<g id="node20" class="node">
<title>node5_host</title>
<ellipse fill="#fef3c7" stroke="#374151" cx="131" cy="-252" rx="77.91" ry="18"/>
<text text-anchor="middle" x="131" y="-249.5" font-family="Arial" font-size="10.00">node5_host\nBranch client</text>
</g>
<!-- lsw5 -->
<g id="node21" class="node">
<title>lsw5</title>
<polygon fill="#dbeafe" stroke="#374151" points="635.78,-305 504.21,-287 635.78,-269 767.35,-287 635.78,-305"/>
<text text-anchor="middle" x="635.78" y="-284.5" font-family="Arial" font-size="10.00">lsw5\nOpenFlow 1.3\nDPID 105</text>
</g>
<!-- node5_host&#45;&#45;lsw5 -->
<g id="edge39" class="edge">
<title>node5_host&#45;&#45;lsw5</title>
<path fill="none" stroke="#374151" d="M205.65,-257.13C296.61,-263.46 451.15,-274.22 547.84,-280.95"/>
<text text-anchor="middle" x="368.5" y="-276.6" font-family="Arial" font-size="8.00">node5_host&#45;lan &lt;&#45;&gt; lsw5&#45;h\n10.5.0.10/24</text>
</g>
<!-- node5 -->
<g id="node22" class="node">
<title>node5</title>
<path fill="#ede9fe" stroke="#374151" d="M234,-331C234,-331 28,-331 28,-331 22,-331 16,-325 16,-319 16,-319 16,-307 16,-307 16,-301 22,-295 28,-295 28,-295 234,-295 234,-295 240,-295 246,-301 246,-307 246,-307 246,-319 246,-319 246,-325 240,-331 234,-331"/>
<text text-anchor="middle" x="131" y="-310.5" font-family="Arial" font-size="10.00">node5\nEdge router\nprimary hub2; standby hub1</text>
</g>
<!-- node5&#45;&#45;mgmtbr -->
<g id="edge8" class="edge">
<title>node5&#45;&#45;mgmtbr</title>
<path fill="none" stroke="#374151" d="M167.45,-331.03C200.91,-348.06 246,-371 246,-371 246,-371 282,-1575 282,-1575 282,-1575 455,-1605 455,-1605 455,-1605 582.4,-1736.1 622.71,-1777.57"/>
<text text-anchor="middle" x="368.5" y="-1607.6" font-family="Arial" font-size="8.00">node5&#45;mgmt &lt;&#45;&gt; mgmtbr&#45;n5\n172.30.0.15/24</text>
</g>
<!-- node5&#45;&#45;s_mpls -->
<g id="edge27" class="edge">
<title>node5&#45;&#45;s_mpls</title>
<path fill="none" stroke="#2563eb" stroke-width="1.8" d="M167.45,-331.03C200.91,-348.06 246,-371 246,-371 246,-371 282,-758 282,-758 282,-758 455,-812 455,-812 455,-812 483,-1012 483,-1012 483,-1012 518.9,-1019.33 555.78,-1026.86"/>
<text text-anchor="middle" x="368.5" y="-814.6" font-family="Arial" font-size="8.00">node5&#45;mpls &lt;&#45;&gt; s_mpls&#45;n5\n192.168.10.15/24</text>
</g>
<!-- node5&#45;&#45;s_bb -->
<g id="edge28" class="edge">
<title>node5&#45;&#45;s_bb</title>
<path fill="none" stroke="#16a34a" stroke-width="1.8" d="M167.45,-331.03C200.91,-348.06 246,-371 246,-371 246,-371 282,-641 282,-641 282,-641 455,-671 455,-671 455,-671 483,-951 483,-951 483,-951 521.54,-958.87 559.78,-966.68"/>
<text text-anchor="middle" x="368.5" y="-673.6" font-family="Arial" font-size="8.00">node5&#45;bb &lt;&#45;&gt; s_bb&#45;n5\n192.168.20.15/24</text>
</g>
<!-- node5&#45;&#45;s_lte -->
<g id="edge29" class="edge">
<title>node5&#45;&#45;s_lte</title>
<path fill="none" stroke="#d97706" stroke-width="1.8" d="M167.45,-331.03C200.91,-348.06 246,-371 246,-371 246,-371 282,-563 282,-563 282,-563 455,-593 455,-593 455,-593 587.17,-834.14 624.86,-902.9"/>
<text text-anchor="middle" x="368.5" y="-595.6" font-family="Arial" font-size="8.00">node5&#45;lte &lt;&#45;&gt; s_lte&#45;n5\n192.168.30.15/24</text>
</g>
<!-- node5&#45;&#45;lsw5 -->
<g id="edge38" class="edge">
<title>node5&#45;&#45;lsw5</title>
<path fill="none" stroke="#374151" d="M246.09,-307.1C334.75,-302.52 456.27,-296.23 539.7,-291.92"/>
<text text-anchor="middle" x="368.5" y="-307.6" font-family="Arial" font-size="8.00">node5&#45;lan &lt;&#45;&gt; lsw5&#45;r\n10.5.0.1/24</text>
</g>
<!-- dc_app -->
<g id="node24" class="node">
<title>dc_app</title>
<polygon fill="#cffafe" stroke="#374151" points="215.5,-142 46.5,-142 46.5,-138 42.5,-138 42.5,-134 46.5,-134 46.5,-114 42.5,-114 42.5,-110 46.5,-110 46.5,-106 215.5,-106 215.5,-142"/>
<polyline fill="none" stroke="#374151" points="46.5,-138 50.5,-138 50.5,-134 46.5,-134 "/>
<polyline fill="none" stroke="#374151" points="46.5,-114 50.5,-114 50.5,-110 46.5,-110 "/>
<text text-anchor="middle" x="131" y="-121.5" font-family="Arial" font-size="10.00">dc_app\nData Center\n10.100.0.10</text>
</g>
<!-- dc_app&#45;&#45;dcbr -->
<g id="edge42" class="edge">
<title>dc_app&#45;&#45;dcbr</title>
<path fill="none" stroke="#374151" d="M215.59,-124C330.77,-124 532.45,-124 606.49,-124"/>
<text text-anchor="middle" x="368.5" y="-126.6" font-family="Arial" font-size="8.00">dc_app&#45;net &lt;&#45;&gt; dcbr&#45;app\n10.100.0.10/24</text>
</g>
<!-- inetbr -->
<g id="node25" class="node">
<title>inetbr</title>
<polygon fill="#e5e7eb" stroke="#374151" points="635.78,-52 601.52,-34 635.78,-16 670.05,-34 635.78,-52"/>
<text text-anchor="middle" x="635.78" y="-31.5" font-family="Arial" font-size="10.00">inetbr</text>
</g>
<!-- saas_nginx -->
<g id="node26" class="node">
<title>saas_nginx</title>
<polygon fill="#dcfce7" stroke="#374151" points="224,-52 38,-52 38,-48 34,-48 34,-44 38,-44 38,-24 34,-24 34,-20 38,-20 38,-16 224,-16 224,-52"/>
<polyline fill="none" stroke="#374151" points="38,-48 42,-48 42,-44 38,-44 "/>
<polyline fill="none" stroke="#374151" points="38,-24 42,-24 42,-20 38,-20 "/>
<text text-anchor="middle" x="131" y="-31.5" font-family="Arial" font-size="10.00">saas_nginx\nNginx SaaS\n198.18.0.10</text>
</g>
<!-- saas_nginx&#45;&#45;s_bb -->
<g id="edge44" class="edge">
<title>saas_nginx&#45;&#45;s_bb</title>
<path fill="none" stroke="#374151" d="M167.45,-52.03C200.91,-69.06 246,-92 246,-92 246,-92 282,-602 282,-602 282,-602 455,-632 455,-632 455,-632 483,-951 483,-951 483,-951 521.54,-958.87 559.78,-966.68"/>
<text text-anchor="middle" x="368.5" y="-634.6" font-family="Arial" font-size="8.00">saas&#45;bb &lt;&#45;&gt; s_bb&#45;saas\n192.168.20.254/24</text>
</g>
<!-- saas_nginx&#45;&#45;s_lte -->
<g id="edge45" class="edge">
<title>saas_nginx&#45;&#45;s_lte</title>
<path fill="none" stroke="#374151" d="M167.45,-52.03C200.91,-69.06 246,-92 246,-92 246,-92 282,-524 282,-524 282,-524 455,-554 455,-554 455,-554 589.59,-828.75 625.87,-902.8"/>
<text text-anchor="middle" x="368.5" y="-556.6" font-family="Arial" font-size="8.00">saas&#45;lte &lt;&#45;&gt; s_lte&#45;saas\n192.168.30.254/24</text>
</g>
<!-- saas_nginx&#45;&#45;inetbr -->
<g id="edge43" class="edge">
<title>saas_nginx&#45;&#45;inetbr</title>
<path fill="none" stroke="#374151" d="M224.22,-34C338.04,-34 525.82,-34 601.57,-34"/>
<text text-anchor="middle" x="368.5" y="-36.6" font-family="Arial" font-size="8.00">saas_nginx&#45;inet &lt;&#45;&gt; inetbr&#45;saas\n198.18.0.10/24</text>
</g>
</g>
</svg>
