<?xml version="1.0" encoding="UTF-8" standalone="no"?>
<!DOCTYPE svg PUBLIC "-//W3C//DTD SVG 1.1//EN"
 "http://www.w3.org/Graphics/SVG/1.1/DTD/svg11.dtd">
<!-- Generated by graphviz version 2.42.4 (0)
 -->
<!-- Title: sdwan_v5 Pages: 1 -->
<svg width="862pt" height="2262pt"
 viewBox="0.00 0.00 861.56 2262.00" xmlns="http://www.w3.org/2000/svg" xmlns:xlink="http://www.w3.org/1999/xlink">
<g id="graph0" class="graph" transform="scale(1 1) rotate(0) translate(18 2244)">
<title>sdwan_v5</title>
<polygon fill="white" stroke="transparent" points="-18,18 -18,-2244 843.56,-2244 843.56,18 -18,18"/>
<text text-anchor="middle" x="412.78" y="-2206" font-family="Arial" font-size="20.00">SD&#45;WAN v5 physical topology (all attachments)</text>
<g id="clust1" class="cluster">
<title>cluster_management</title>
<path fill="white" stroke="#9ca3af" d="M42.4,-1764C42.4,-1764 702.41,-1764 702.41,-1764 708.41,-1764 714.41,-1770 714.41,-1776 714.41,-1776 714.41,-1834 714.41,-1834 714.41,-1840 708.41,-1846 702.41,-1846 702.41,-1846 42.4,-1846 42.4,-1846 36.4,-1846 30.4,-1840 30.4,-1834 30.4,-1834 30.4,-1776 30.4,-1776 30.4,-1770 36.4,-1764 42.4,-1764"/>
<text text-anchor="middle" x="372.4" y="-1826" font-family="Arial" font-size="20.00">Management</text>
</g>
<g id="clust2" class="cluster">
<title>cluster_hubs</title>
<path fill="white" stroke="#9ca3af" d="M50,-875C50,-875 248,-875 248,-875 254,-875 260,-881 260,-887 260,-887 260,-1006 260,-1006 260,-1012 254,-1018 248,-1018 248,-1018 50,-1018 50,-1018 44,-1018 38,-1012 38,-1006 38,-1006 38,-887 38,-887 38,-881 44,-875 50,-875"/>
<text text-anchor="middle" x="149" y="-998" font-family="Arial" font-size="20.00">Dual active&#45;active hubs</text>
</g>
<g id="clust3" class="cluster">
<title>cluster_underlay</title>
<path fill="white" stroke="#9ca3af" d="M524,-895C524,-895 805.56,-895 805.56,-895 811.56,-895 817.56,-901 817.56,-907 817.56,-907 817.56,-1087 817.56,-1087 817.56,-1093 811.56,-1099 805.56,-1099 805.56,-1099 524,-1099 524,-1099 518,-1099 512,-1093 512,-1087 512,-1087 512,-907 512,-907 512,-901 518,-895 524,-895"/>
<text text-anchor="middle" x="664.78" y="-1079" font-family="Arial" font-size="20.00">Transport underlay</text>
</g>
<g id="clust4" class="cluster">
<title>cluster_branch_node1</title>
<path fill="white" stroke="#9ca3af" d="M38,-2045C38,-2045 792.32,-2045 792.32,-2045 798.32,-2045 804.32,-2051 804.32,-2057 804.32,-2057 804.32,-2176 804.32,-2176 804.32,-2182 798.32,-2188 792.32,-2188 792.32,-2188 38,-2188 38,-2188 32,-2188 26,-2182 26,-2176 26,-2176 26,-2057 26,-2057 26,-2051 32,-2045 38,-2045"/>
<text text-anchor="middle" x="415.16" y="-2168" font-family="Arial" font-size="20.00">node1 LAN (10.1.0.0/24)</text>
</g>
<g id="clust5" class="cluster">
<title>cluster_branch_node2</title>
<path fill="white" stroke="#9ca3af" d="M38,-1894C38,-1894 792.32,-1894 792.32,-1894 798.32,-1894 804.32,-1900 804.32,-1906 804.32,-1906 804.32,-2025 804.32,-2025 804.32,-2031 798.32,-2037 792.32,-2037 792.32,-2037 38,-2037 38,-2037 32,-2037 26,-2031 26,-2025 26,-2025 26,-1906 26,-1906 26,-1900 32,-1894 38,-1894"/>
<text text-anchor="middle" x="415.16" y="-2017" font-family="Arial" font-size="20.00">node2 LAN (10.2.0.0/24)</text>
</g>
<g id="clust6" class="cluster">
<title>cluster_branch_node3</title>
<path fill="white" stroke="#9ca3af" d="M38,-1428C38,-1428 792.32,-1428 792.32,-1428 798.32,-1428 804.32,-1434 804.32,-1440 804.32,-1440 804.32,-1559 804.32,-1559 804.32,-1565 798.32,-1571 792.32,-1571 792.32,-1571 38,-1571 38,-1571 32,-1571 26,-1565 26,-1559 26,-1559 26,-1440 26,-1440 26,-1434 32,-1428 38,-1428"/>
<text text-anchor="middle" x="415.16" y="-1551" font-family="Arial" font-size="20.00">node3 LAN (10.3.0.0/24)</text>
</g>
<g id="clust7" class="cluster">
<title>cluster_branch_node4</title>
<path fill="white" stroke="#9ca3af" d="M38,-377C38,-377 792.32,-377 792.32,-377 798.32,-377 804.32,-383 804.32,-389 804.32,-389 804.32,-508 804.32,-508 804.32,-514 798.32,-520 792.32,-520 792.32,-520 38,-520 38,-520 32,-520 26,-514 26,-508 26,-508 26,-389 26,-389 26,-383 32,-377 38,-377"/>
<text text-anchor="middle" x="415.16" y="-500" font-family="Arial" font-size="20.00">node4 LAN (10.4.0.0/24)</text>
</g>
<g id="clust8" class="cluster">
<title>cluster_branch_node5</title>
<path fill="white" stroke="#9ca3af" d="M38,-226C38,-226 792.32,-226 792.32,-226 798.32,-226 804.32,-232 804.32,-238 804.32,-238 804.32,-357 804.32,-357 804.32,-363 798.32,-369 792.32,-369 792.32,-369 38,-369 38,-369 32,-369 26,-363 26,-357 26,-357 26,-238 26,-238 26,-232 32,-226 38,-226"/>
<text text-anchor="middle" x="415.16" y="-349" font-family="Arial" font-size="20.00">node5 LAN (10.5.0.0/24)</text>
</g>
<g id="clust9" class="cluster">
<title>cluster_data_center</title>
<path fill="white" stroke="#9ca3af" d="M33,-98C33,-98 689.92,-98 689.92,-98 695.92,-98 701.92,-104 701.92,-110 701.92,-110 701.92,-168 701.92,-168 701.92,-174 695.92,-180 689.92,-180 689.92,-180 33,-180 33,-180 27,-180 21,-174 21,-168 21,-168 21,-110 21,-110 21,-104 27,-98 33,-98"/>
<text text-anchor="middle" x="361.46" y="-160" font-family="Arial" font-size="20.00">Data Center (10.100.0.0/24)</text>
</g>
<g id="clust10" class="cluster">
<title>cluster_saas</title>
<path fill="white" stroke="#9ca3af" d="M20,-8C20,-8 694.91,-8 694.91,-8 700.91,-8 706.91,-14 706.91,-20 706.91,-20 706.91,-78 706.91,-78 706.91,-84 700.91,-90 694.91,-90 694.91,-90 20,-90 20,-90 14,-90 8,-84 8,-78 8,-78 8,-20 8,-20 8,-14 14,-8 20,-8"/>
<text text-anchor="middle" x="357.46" y="-70" font-family="Arial" font-size="20.00">Public SaaS simulation (198.18.0.0/24)</text>
</g>
<!-- mgmtroot -->
<g id="node1" class="node">
<title>mgmtroot</title>
<polygon fill="#e5e7eb" stroke="#374151" points="259.7,-1795.56 149,-1808 38.3,-1795.56 38.4,-1775.44 259.6,-1775.44 259.7,-1795.56"/>
<text text-anchor="middle" x="149" y="-1787.5" font-family="Arial" font-size="10.00">mgmtroot\ncontroller / services</text>
</g>
<!-- mgmtbr -->
<g id="node2" class="node">
<title>mgmtbr</title>
<polygon fill="#e5e7eb" stroke="#374151" points="664.78,-1808 623.03,-1790 664.78,-1772 706.53,-1790 664.78,-1808"/>
<text text-anchor="middle" x="664.78" y="-1787.5" font-family="Arial" font-size="10.00">mgmtbr</text>
</g>
<!-- mgmtroot&#45;&#45;mgmtbr -->
<g id="edge1" class="edge">
<title>mgmtroot&#45;&#45;mgmtbr</title>
<path fill="none" stroke="#6b7280" stroke-dasharray="5,2" d="M259.9,-1790C373.69,-1790 545.46,-1790 623.12,-1790"/>
<text text-anchor="middle" x="401" y="-1792.6" font-family="Arial" font-size="8.00">mgmt&#45;root &lt;&#45;&gt; mgmtbr&#45;root\n172.30.0.254/24</text>
</g>
<!-- hub1 -->
<g id="node3" class="node">
<title>hub1</title>
<path fill="#ede9fe" stroke="#374151" d="M198,-980C198,-980 100,-980 100,-980 94,-980 88,-974 88,-968 88,-968 88,-956 88,-956 88,-950 94,-944 100,-944 100,-944 198,-944 198,-944 204,-944 210,-950 210,-956 210,-956 210,-968 210,-968 210,-974 204,-980 198,-980"/>
<text text-anchor="middle" x="149" y="-959.5" font-family="Arial" font-size="10.00">hub1\nActive&#45;active hub</text>
</g>
<!-- hub1&#45;&#45;mgmtbr -->
<g id="edge2" class="edge">
<title>hub1&#45;&#45;mgmtbr</title>
<path fill="none" stroke="#374151" d="M155.17,-980.03C179.58,-1065.08 282,-1422 282,-1422 282,-1422 318,-1692 318,-1692 318,-1692 484,-1722 484,-1722 484,-1722 593.73,-1763.5 641.74,-1781.66"/>
<text text-anchor="middle" x="401" y="-1724.6" font-family="Arial" font-size="8.00">hub1&#45;mgmt &lt;&#45;&gt; mgmtbr&#45;h1\n172.30.0.1/24</text>
</g>
<!-- s_mpls -->
<g id="node5" class="node">
<title>s_mpls</title>
<polygon fill="#2563eb" stroke="#374151" points="809.35,-1043 737.06,-1061 592.5,-1061 520.22,-1043 592.5,-1025 737.06,-1025 809.35,-1043"/>
<text text-anchor="middle" x="664.78" y="-1040.5" font-family="Arial" font-size="10.00" fill="white">s_mpls\nMPLS underlay\n20.0 Mbps; 4.0 ms</text>
</g>
<!-- hub1&#45;&#45;s_mpls -->
<g id="edge9" class="edge">
<title>hub1&#45;&#45;s_mpls</title>
<path fill="none" stroke="#2563eb" stroke-width="1.8" d="M170.6,-980.03C215.46,-1019.28 318,-1109 318,-1109 318,-1109 484,-1109 484,-1109 484,-1109 561.43,-1080.58 614.66,-1061.03"/>
<text text-anchor="middle" x="401" y="-1111.6" font-family="Arial" font-size="8.00">hub1&#45;mpls &lt;&#45;&gt; s_mpls&#45;h1\n192.168.10.1/24</text>
</g>
<!-- s_bb -->
<g id="node6" class="node">
<title>s_bb</title>
<polygon fill="#16a34a" stroke="#374151" points="796.52,-982 730.65,-1000 598.91,-1000 533.05,-982 598.91,-964 730.65,-964 796.52,-982"/>
<text text-anchor="middle" x="664.78" y="-979.5" font-family="Arial" font-size="10.00" fill="white">s_bb\nBB underlay\n50.0 Mbps; 25.0 ms</text>
</g>
<!-- hub1&#45;&#45;s_bb -->
<g id="edge10" class="edge">
<title>hub1&#45;&#45;s_bb</title>
<path fill="none" stroke="#16a34a" stroke-width="1.8" d="M210.2,-964.34C293.2,-967.57 444.43,-973.46 549.32,-977.54"/>
<text text-anchor="middle" x="401" y="-977.6" font-family="Arial" font-size="8.00">hub1&#45;bb &lt;&#45;&gt; s_bb&#45;h1\n192.168.20.1/24</text>
</g>
<!-- s_lte -->
<g id="node7" class="node">
<title>s_lte</title>
<polygon fill="#d97706" stroke="#374151" points="796.16,-921 730.47,-939 599.09,-939 533.41,-921 599.09,-903 730.47,-903 796.16,-921"/>
<text text-anchor="middle" x="664.78" y="-918.5" font-family="Arial" font-size="10.00" fill="white">s_lte\nLTE underlay\n8.0 Mbps; 60.0 ms</text>
</g>
<!-- hub1&#45;&#45;s_lte -->
<g id="edge11" class="edge">
<title>hub1&#45;&#45;s_lte</title>
<path fill="none" stroke="#d97706" stroke-width="1.8" d="M210.2,-957.2C296.71,-950.29 457.34,-937.47 562.38,-929.09"/>
<text text-anchor="middle" x="401" y="-950.6" font-family="Arial" font-size="8.00">hub1&#45;lte &lt;&#45;&gt; s_lte&#45;h1\n192.168.30.1/24</text>
</g>
<!-- dcbr -->
<g id="node23" class="node">
<title>dcbr</title>
<polygon fill="#e5e7eb" stroke="#374151" points="664.78,-142 635.51,-124 664.78,-106 694.06,-124 664.78,-142"/>
<text text-anchor="middle" x="664.78" y="-121.5" font-family="Arial" font-size="10.00">dcbr</text>
</g>
<!-- hub1&#45;&#45;dcbr -->
<g id="edge40" class="edge">
<title>hub1&#45;&#45;dcbr</title>
<path fill="none" stroke="#374151" d="M210.21,-947.86C245.02,-939.68 282,-931 282,-931 282,-931 318,-211 318,-211 318,-211 484,-180 484,-180 484,-180 598.72,-144.26 644.88,-129.89"/>
<text text-anchor="middle" x="401" y="-213.6" font-family="Arial" font-size="8.00">hub1&#45;dc &lt;&#45;&gt; dcbr&#45;h1\n10.100.0.1/24</text>
</g>
<!-- hub2 -->
<g id="node4" class="node">
<title>hub2</title>
<path fill="#ede9fe" stroke="#374151" d="M198,-919C198,-919 100,-919 100,-919 94,-919 88,-913 88,-907 88,-907 88,-895 88,-895 88,-889 94,-883 100,-883 100,-883 198,-883 198,-883 204,-883 210,-889 210,-895 210,-895 210,-907 210,-907 210,-913 204,-919 198,-919"/>
<text text-anchor="middle" x="149" y="-898.5" font-family="Arial" font-size="10.00">hub2\nActive&#45;active hub</text>
</g>
<!-- hub2&#45;&#45;mgmtbr -->
<g id="edge3" class="edge">
<title>hub2&#45;&#45;mgmtbr</title>
<path fill="none" stroke="#374151" d="M210.21,-914.68C245.02,-922.6 282,-931 282,-931 282,-931 318,-1653 318,-1653 318,-1653 484,-1683 484,-1683 484,-1683 601.55,-1752.96 646.54,-1779.74"/>
<text text-anchor="middle" x="401" y="-1685.6" font-family="Arial" font-size="8.00">hub2&#45;mgmt &lt;&#45;&gt; mgmtbr&#45;h2\n172.30.0.2/24</text>
</g>
<!-- hub2&#45;&#45;s_mpls -->
<g id="edge12" class="edge">
<title>hub2&#45;&#45;s_mpls</title>
<path fill="none" stroke="#2563eb" stroke-width="1.8" d="M210.21,-914.68C245.02,-922.6 282,-931 282,-931 282,-931 318,-990 318,-990 318,-990 472.28,-1013.65 574.73,-1029.35"/>
<text text-anchor="middle" x="401" y="-1017.6" font-family="Arial" font-size="8.00">hub2&#45;mpls &lt;&#45;&gt; s_mpls&#45;h2\n192.168.10.2/24</text>
</g>
<!-- hub2&#45;&#45;s_bb -->
<g id="edge13" class="edge">
<title>hub2&#45;&#45;s_bb</title>
<path fill="none" stroke="#16a34a" stroke-width="1.8" d="M210.18,-888.46C258.38,-878.42 318,-866 318,-866 318,-866 484,-866 484,-866 484,-866 512,-951 512,-951 512,-951 550.54,-958.87 588.78,-966.68"/>
<text text-anchor="middle" x="401" y="-868.6" font-family="Arial" font-size="8.00">hub2&#45;bb &lt;&#45;&gt; s_bb&#45;h2\n192.168.20.2/24</text>
</g>
<!-- hub2&#45;&#45;s_lte -->
<g id="edge14" class="edge">
<title>hub2&#45;&#45;s_lte</title>
<path fill="none" stroke="#d97706" stroke-width="1.8" d="M191.1,-882.9C240.83,-860.99 318,-827 318,-827 318,-827 484,-827 484,-827 484,-827 576.88,-875.56 629.12,-902.88"/>
<text text-anchor="middle" x="401" y="-829.6" font-family="Arial" font-size="8.00">hub2&#45;lte &lt;&#45;&gt; s_lte&#45;h2\n192.168.30.2/24</text>
</g>
<!-- hub2&#45;&#45;dcbr -->
<g id="edge41" class="edge">
<title>hub2&#45;&#45;dcbr</title>
<path fill="none" stroke="#374151" d="M156.37,-882.91C182.73,-808.01 282,-526 282,-526 282,-526 318,-171 318,-171 318,-171 563.03,-137.69 640.56,-127.16"/>
<text text-anchor="middle" x="401" y="-173.6" font-family="Arial" font-size="8.00">hub2&#45;dc &lt;&#45;&gt; dcbr&#45;h2\n10.100.0.2/24</text>
</g>
<!-- node1_host -->
<g id="node8" class="node">
<title>node1_host</title>
<ellipse fill="#fef3c7" stroke="#374151" cx="149" cy="-2132" rx="77.91" ry="18"/>
<text text-anchor="middle" x="149" y="-2129.5" font-family="Arial" font-size="10.00">node1_host\nBranch client</text>
</g>
<!-- lsw1 -->
<g id="node9" class="node">
<title>lsw1</title>
<polygon fill="#dbeafe" stroke="#374151" points="664.78,-2124 533.21,-2106 664.78,-2088 796.35,-2106 664.78,-2124"/>
<text text-anchor="middle" x="664.78" y="-2103.5" font-family="Arial" font-size="10.00">lsw1\nOpenFlow 1.3\nDPID 101</text>
</g>
<!-- node1_host&#45;&#45;lsw1 -->
<g id="edge31" class="edge">
<title>node1_host&#45;&#45;lsw1</title>
<path fill="none" stroke="#374151" d="M224.98,-2128.21C315.78,-2123.61 468.85,-2115.86 568.08,-2110.84"/>
<text text-anchor="middle" x="401" y="-2124.6" font-family="Arial" font-size="8.00">node1_host&#45;lan &lt;&#45;&gt; lsw1&#45;h\n10.1.0.10/24</text>
</g>
<!-- node1 -->
<g id="node10" class="node">
<title>node1</title>
<path fill="#ede9fe" stroke="#374151" d="M252,-2089C252,-2089 46,-2089 46,-2089 40,-2089 34,-2083 34,-2077 34,-2077 34,-2065 34,-2065 34,-2059 40,-2053 46,-2053 46,-2053 252,-2053 252,-2053 258,-2053 264,-2059 264,-2065 264,-2065 264,-2077 264,-2077 264,-2083 258,-2089 252,-2089"/>
<text text-anchor="middle" x="149" y="-2068.5" font-family="Arial" font-size="10.00">node1\nEdge router\nprimary hub1; standby hub2</text>
</g>
<!-- node1&#45;&#45;mgmtbr -->
<g id="edge4" class="edge">
<title>node1&#45;&#45;mgmtbr</title>
<path fill="none" stroke="#374151" d="M235.09,-2052.95C260.63,-2047.53 282,-2043 282,-2043 282,-2043 318,-1879 318,-1879 318,-1879 484,-1848 484,-1848 484,-1848 591.55,-1813.3 640.28,-1797.58"/>
<text text-anchor="middle" x="401" y="-1881.6" font-family="Arial" font-size="8.00">node1&#45;mgmt &lt;&#45;&gt; mgmtbr&#45;n1\n172.30.0.11/24</text>
</g>
<!-- node1&#45;&#45;s_mpls -->
<g id="edge15" class="edge">
<title>node1&#45;&#45;s_mpls</title>
<path fill="none" stroke="#2563eb" stroke-width="1.8" d="M235.09,-2052.95C260.63,-2047.53 282,-2043 282,-2043 282,-2043 318,-1413 318,-1413 318,-1413 484,-1382 484,-1382 484,-1382 616.77,-1131.64 654.12,-1061.23"/>
<text text-anchor="middle" x="401" y="-1415.6" font-family="Arial" font-size="8.00">node1&#45;mpls &lt;&#45;&gt; s_mpls&#45;n1\n192.168.10.11/24</text>
</g>
<!-- node1&#45;&#45;s_bb -->
<g id="edge16" class="edge">
<title>node1&#45;&#45;s_bb</title>
<path fill="none" stroke="#16a34a" stroke-width="1.8" d="M235.09,-2052.95C260.63,-2047.53 282,-2043 282,-2043 282,-2043 318,-1334 318,-1334 318,-1334 484,-1304 484,-1304 484,-1304 512,-1012 512,-1012 512,-1012 549.95,-1004.5 587.89,-997"/>
<text text-anchor="middle" x="401" y="-1336.6" font-family="Arial" font-size="8.00">node1&#45;bb &lt;&#45;&gt; s_bb&#45;n1\n192.168.20.11/24</text>
</g>
<!-- node1&#45;&#45;s_lte -->
<g id="edge17" class="edge">
<title>node1&#45;&#45;s_lte</title>
<path fill="none" stroke="#d97706" stroke-width="1.8" d="M235.09,-2052.95C260.63,-2047.53 282,-2043 282,-2043 282,-2043 318,-1295 318,-1295 318,-1295 484,-1265 484,-1265 484,-1265 512,-951 512,-951 512,-951 549.95,-943.5 587.89,-936"/>
<text text-anchor="middle" x="401" y="-1297.6" font-family="Arial" font-size="8.00">node1&#45;lte &lt;&#45;&gt; s_lte&#45;n1\n192.168.30.11/24</text>
</g>
<!-- node1&#45;&#45;lsw1 -->
<g id="edge30" class="edge">
<title>node1&#45;&#45;lsw1</title>
<path fill="none" stroke="#374151" d="M264.02,-2078.77C358.33,-2085.19 490.3,-2094.18 576.4,-2100.05"/>
<text text-anchor="middle" x="401" y="-2095.6" font-family="Arial" font-size="8.00">node1&#45;lan &lt;&#45;&gt; lsw1&#45;r\n10.1.0.1/24</text>
</g>
<!-- node2_host -->
<g id="node11" class="node">
<title>node2_host</title>
<ellipse fill="#fef3c7" stroke="#374151" cx="149" cy="-1981" rx="77.91" ry="18"/>
<text text-anchor="middle" x="149" y="-1978.5" font-family="Arial" font-size="10.00">node2_host\nBranch client</text>
</g>
<!-- lsw2 -->
<g id="node12" class="node">
<title>lsw2</title>
<polygon fill="#dbeafe" stroke="#374151" points="664.78,-1973 533.21,-1955 664.78,-1937 796.35,-1955 664.78,-1973"/>
<text text-anchor="middle" x="664.78" y="-1952.5" font-family="Arial" font-size="10.00">lsw2\nOpenFlow 1.3\nDPID 102</text>
</g>
<!-- node2_host&#45;&#45;lsw2 -->
<g id="edge33" class="edge">
<title>node2_host&#45;&#45;lsw2</title>
<path fill="none" stroke="#374151" d="M224.98,-1977.21C315.78,-1972.61 468.85,-1964.86 568.08,-1959.84"/>
<text text-anchor="middle" x="401" y="-1973.6" font-family="Arial" font-size="8.00">node2_host&#45;lan &lt;&#45;&gt; lsw2&#45;h\n10.2.0.10/24</text>
</g>
<!-- node2 -->
<g id="node13" class="node">
<title>node2</title>
<path fill="#ede9fe" stroke="#374151" d="M252,-1938C252,-1938 46,-1938 46,-1938 40,-1938 34,-1932 34,-1926 34,-1926 34,-1914 34,-1914 34,-1908 40,-1902 46,-1902 46,-1902 252,-1902 252,-1902 258,-1902 264,-1908 264,-1914 264,-1914 264,-1926 264,-1926 264,-1932 258,-1938 252,-1938"/>
<text text-anchor="middle" x="149" y="-1917.5" font-family="Arial" font-size="10.00">node2\nEdge router\nprimary hub1; standby hub2</text>
</g>
<!-- node2&#45;&#45;mgmtbr -->
<g id="edge5" class="edge">
<title>node2&#45;&#45;mgmtbr</title>
<path fill="none" stroke="#374151" d="M187.7,-1901.82C237.23,-1877.94 318,-1839 318,-1839 318,-1839 548.47,-1806.34 633.1,-1794.35"/>
<text text-anchor="middle" x="401" y="-1841.6" font-family="Arial" font-size="8.00">node2&#45;mgmt &lt;&#45;&gt; mgmtbr&#45;n2\n172.30.0.12/24</text>
</g>
<!-- node2&#45;&#45;s_mpls -->
<g id="edge18" class="edge">
<title>node2&#45;&#45;s_mpls</title>
<path fill="none" stroke="#2563eb" stroke-width="1.8" d="M185.03,-1901.96C224.13,-1881.81 282,-1852 282,-1852 282,-1852 318,-1373 318,-1373 318,-1373 484,-1343 484,-1343 484,-1343 613.77,-1126.45 652.81,-1061.31"/>
<text text-anchor="middle" x="401" y="-1375.6" font-family="Arial" font-size="8.00">node2&#45;mpls &lt;&#45;&gt; s_mpls&#45;n2\n192.168.10.12/24</text>
</g>
<!-- node2&#45;&#45;s_bb -->
<g id="edge19" class="edge">
<title>node2&#45;&#45;s_bb</title>
<path fill="none" stroke="#16a34a" stroke-width="1.8" d="M185.03,-1901.96C224.13,-1881.81 282,-1852 282,-1852 282,-1852 318,-1217 318,-1217 318,-1217 484,-1187 484,-1187 484,-1187 512,-1012 512,-1012 512,-1012 549.95,-1004.5 587.89,-997"/>
<text text-anchor="middle" x="401" y="-1219.6" font-family="Arial" font-size="8.00">node2&#45;bb &lt;&#45;&gt; s_bb&#45;n2\n192.168.20.12/24</text>
</g>
<!-- node2&#45;&#45;s_lte -->
<g id="edge20" class="edge">
<title>node2&#45;&#45;s_lte</title>
<path fill="none" stroke="#d97706" stroke-width="1.8" d="M185.03,-1901.96C224.13,-1881.81 282,-1852 282,-1852 282,-1852 318,-1178 318,-1178 318,-1178 484,-1124 484,-1124 484,-1124 512,-951 512,-951 512,-951 549.95,-943.5 587.89,-936"/>
<text text-anchor="middle" x="401" y="-1180.6" font-family="Arial" font-size="8.00">node2&#45;lte &lt;&#45;&gt; s_lte&#45;n2\n192.168.30.12/24</text>
</g>
<!-- node2&#45;&#45;lsw2 -->
<g id="edge32" class="edge">
<title>node2&#45;&#45;lsw2</title>
<path fill="none" stroke="#374151" d="M264.02,-1927.77C358.33,-1934.19 490.3,-1943.18 576.4,-1949.05"/>
<text text-anchor="middle" x="401" y="-1944.6" font-family="Arial" font-size="8.00">node2&#45;lan &lt;&#45;&gt; lsw2&#45;r\n10.2.0.1/24</text>
</g>
<!-- node3_host -->
<g id="node14" class="node">
<title>node3_host</title>
<ellipse fill="#fef3c7" stroke="#374151" cx="149" cy="-1515" rx="77.91" ry="18"/>
<text text-anchor="middle" x="149" y="-1512.5" font-family="Arial" font-size="10.00">node3_host\nBranch client</text>
</g>
<!-- lsw3 -->
<g id="node15" class="node">
<title>lsw3</title>
<polygon fill="#dbeafe" stroke="#374151" points="664.78,-1507 533.21,-1489 664.78,-1471 796.35,-1489 664.78,-1507"/>
<text text-anchor="middle" x="664.78" y="-1486.5" font-family="Arial" font-size="10.00">lsw3\nOpenFlow 1.3\nDPID 103</text>
</g>
<!-- node3_host&#45;&#45;lsw3 -->
<g id="edge35" class="edge">
<title>node3_host&#45;&#45;lsw3</title>
<path fill="none" stroke="#374151" d="M224.98,-1511.21C315.78,-1506.61 468.85,-1498.86 568.08,-1493.84"/>
<text text-anchor="middle" x="401" y="-1508.6" font-family="Arial" font-size="8.00">node3_host&#45;lan &lt;&#45;&gt; lsw3&#45;h\n10.3.0.10/24</text>
</g>
<!-- node3 -->
<g id="node16" class="node">
<title>node3</title>
<path fill="#ede9fe" stroke="#374151" d="M252,-1472C252,-1472 46,-1472 46,-1472 40,-1472 34,-1466 34,-1460 34,-1460 34,-1448 34,-1448 34,-1442 40,-1436 46,-1436 46,-1436 252,-1436 252,-1436 258,-1436 264,-1442 264,-1448 264,-1448 264,-1460 264,-1460 264,-1466 258,-1472 252,-1472"/>
<text text-anchor="middle" x="149" y="-1451.5" font-family="Arial" font-size="10.00">node3\nEdge router\nprimary hub1; standby hub2</text>
</g>
<!-- node3&#45;&#45;mgmtbr -->
<g id="edge6" class="edge">
<title>node3&#45;&#45;mgmtbr</title>
<path fill="none" stroke="#374151" d="M229.45,-1472.06C257.41,-1478.41 282,-1484 282,-1484 282,-1484 318,-1731 318,-1731 318,-1731 550.68,-1770.7 634.3,-1784.97"/>
<text text-anchor="middle" x="401" y="-1760.6" font-family="Arial" font-size="8.00">node3&#45;mgmt &lt;&#45;&gt; mgmtbr&#45;n3\n172.30.0.13/24</text>
</g>
<!-- node3&#45;&#45;s_mpls -->
<g id="edge21" class="edge">
<title>node3&#45;&#45;s_mpls</title>
<path fill="none" stroke="#2563eb" stroke-width="1.8" d="M165.5,-1435.73C207.09,-1386.71 318,-1256 318,-1256 318,-1256 484,-1226 484,-1226 484,-1226 600.41,-1107.5 645.89,-1061.22"/>
<text text-anchor="middle" x="401" y="-1258.6" font-family="Arial" font-size="8.00">node3&#45;mpls &lt;&#45;&gt; s_mpls&#45;n3\n192.168.10.13/24</text>
</g>
<!-- node3&#45;&#45;s_bb -->
<g id="edge22" class="edge">
<title>node3&#45;&#45;s_bb</title>
<path fill="none" stroke="#16a34a" stroke-width="1.8" d="M158.56,-1435.96C192.8,-1363.82 318,-1100 318,-1100 318,-1100 484,-1070 484,-1070 484,-1070 512,-1012 512,-1012 512,-1012 549.95,-1004.5 587.89,-997"/>
<text text-anchor="middle" x="401" y="-1102.6" font-family="Arial" font-size="8.00">node3&#45;bb &lt;&#45;&gt; s_bb&#45;n3\n192.168.20.13/24</text>
</g>
<!-- node3&#45;&#45;s_lte -->
<g id="edge23" class="edge">
<title>node3&#45;&#45;s_lte</title>
<path fill="none" stroke="#d97706" stroke-width="1.8" d="M157.77,-1435.83C190.81,-1358.54 318,-1061 318,-1061 318,-1061 484,-1030 484,-1030 484,-1030 512,-951 512,-951 512,-951 549.95,-943.5 587.89,-936"/>
<text text-anchor="middle" x="401" y="-1063.6" font-family="Arial" font-size="8.00">node3&#45;lte &lt;&#45;&gt; s_lte&#45;n3\n192.168.30.13/24</text>
</g>
<!-- node3&#45;&#45;lsw3 -->
<g id="edge34" class="edge">
<title>node3&#45;&#45;lsw3</title>
<path fill="none" stroke="#374151" d="M264.02,-1461.77C358.33,-1468.19 490.3,-1477.18 576.4,-1483.05"/>
<text text-anchor="middle" x="401" y="-1479.6" font-family="Arial" font-size="8.00">node3&#45;lan &lt;&#45;&gt; lsw3&#45;r\n10.3.0.1/24</text>
</g>
<!-- node4_host -->
<g id="node17" class="node">
<title>node4_host</title>
<ellipse fill="#fef3c7" stroke="#374151" cx="149" cy="-403" rx="77.91" ry="18"/>
<text text-anchor="middle" x="149" y="-400.5" font-family="Arial" font-size="10.00">node4_host\nBranch client</text>
</g>
<!-- lsw4 -->
<g id="node18" class="node">
<title>lsw4</title>
<polygon fill="#dbeafe" stroke="#374151" points="664.78,-456 533.21,-438 664.78,-420 796.35,-438 664.78,-456"/>
<text text-anchor="middle" x="664.78" y="-435.5" font-family="Arial" font-size="10.00">lsw4\nOpenFlow 1.3\nDPID 104</text>
</g>
<!-- node4_host&#45;&#45;lsw4 -->
<g id="edge37" class="edge">
<title>node4_host&#45;&#45;lsw4</title>
<path fill="none" stroke="#374151" d="M223.89,-408.03C317.05,-414.38 477,-425.28 576.21,-432.03"/>
<text text-anchor="middle" x="401" y="-428.6" font-family="Arial" font-size="8.00">node4_host&#45;lan &lt;&#45;&gt; lsw4&#45;h\n10.4.0.10/24</text>
</g>
<!-- node4 -->
<g id="node19" class="node">
<title>node4</title>
<path fill="#ede9fe" stroke="#374151" d="M252,-482C252,-482 46,-482 46,-482 40,-482 34,-476 34,-470 34,-470 34,-458 34,-458 34,-452 40,-446 46,-446 46,-446 252,-446 252,-446 258,-446 264,-452 264,-458 264,-458 264,-470 264,-470 264,-476 258,-482 252,-482"/>
<text text-anchor="middle" x="149" y="-461.5" font-family="Arial" font-size="10.00">node4\nEdge router\nprimary hub2; standby hub1</text>
</g>
<!-- node4&#45;&#45;mgmtbr -->
<g id="edge7" class="edge">
<title>node4&#45;&#45;mgmtbr</title>
<path fill="none" stroke="#374151" d="M155.93,-482.19C181.61,-560.99 282,-869 282,-869 282,-869 318,-1614 318,-1614 318,-1614 484,-1644 484,-1644 484,-1644 606.71,-1743.65 649.37,-1778.3"/>
<text text-anchor="middle" x="401" y="-1646.6" font-family="Arial" font-size="8.00">node4&#45;mgmt &lt;&#45;&gt; mgmtbr&#45;n4\n172.30.0.14/24</text>
</g>
<!-- node4&#45;&#45;s_mpls -->
<g id="edge24" class="edge">
<title>node4&#45;&#45;s_mpls</title>
<path fill="none" stroke="#2563eb" stroke-width="1.8" d="M157.44,-482.19C189.95,-561.73 318,-875 318,-875 318,-875 484,-921 484,-921 484,-921 512,-1012 512,-1012 512,-1012 547.9,-1019.33 584.78,-1026.86"/>
<text text-anchor="middle" x="401" y="-923.6" font-family="Arial" font-size="8.00">node4&#45;mpls &lt;&#45;&gt; s_mpls&#45;n4\n192.168.10.14/24</text>
</g>
<!-- node4&#45;&#45;s_bb -->
<g id="edge25" class="edge">
<title>node4&#45;&#45;s_bb</title>
<path fill="none" stroke="#16a34a" stroke-width="1.8" d="M162.08,-482.34C200.6,-540.81 318,-719 318,-719 318,-719 484,-749 484,-749 484,-749 512,-951 512,-951 512,-951 550.54,-958.87 588.78,-966.68"/>
<text text-anchor="middle" x="401" y="-751.6" font-family="Arial" font-size="8.00">node4&#45;bb &lt;&#45;&gt; s_bb&#45;n4\n192.168.20.14/24</text>
</g>
<!-- node4&#45;&#45;s_lte -->
<g id="edge26" class="edge">
<title>node4&#45;&#45;s_lte</title>
<path fill="none" stroke="#d97706" stroke-width="1.8" d="M164.03,-482.04C204.41,-533.96 318,-680 318,-680 318,-680 484,-710 484,-710 484,-710 604.4,-851.31 648.14,-902.64"/>
<text text-anchor="middle" x="401" y="-712.6" font-family="Arial" font-size="8.00">node4&#45;lte &lt;&#45;&gt; s_lte&#45;n4\n192.168.30.14/24</text>
</g>
<!-- node4&#45;&#45;lsw4 -->
<g id="edge36" class="edge">
<title>node4&#45;&#45;lsw4</title>
<path fill="none" stroke="#374151" d="M264.02,-458.23C355.38,-453.61 482.07,-447.2 568.17,-442.84"/>
<text text-anchor="middle" x="401" y="-457.6" font-family="Arial" font-size="8.00">node4&#45;lan &lt;&#45;&gt; lsw4&#45;r\n10.4.0.1/24</text>
</g>
<!-- node5_host -->
<g id="node20" class="node">
<title>node5_host</title>
<ellipse fill="#fef3c7" stroke="#374151" cx="149" cy="-252" rx="77.91" ry="18"/>
<text text-anchor="middle" x="149" y="-249.5" font-family="Arial" font-size="10.00">node5_host\nBranch client</text>
</g>
<!-- lsw5 -->
<g id="node21" class="node">
<title>lsw5</title>
<polygon fill="#dbeafe" stroke="#374151" points="664.78,-305 533.21,-287 664.78,-269 796.35,-287 664.78,-305"/>
<text text-anchor="middle" x="664.78" y="-284.5" font-family="Arial" font-size="10.00">lsw5\nOpenFlow 1.3\nDPID 105</text>
</g>
<!-- node5_host&#45;&#45;lsw5 -->
<g id="edge39" class="edge">
<title>node5_host&#45;&#45;lsw5</title>
<path fill="none" stroke="#374151" d="M223.89,-257.03C317.05,-263.38 477,-274.28 576.21,-281.03"/>
<text text-anchor="middle" x="401" y="-277.6" font-family="Arial" font-size="8.00">node5_host&#45;lan &lt;&#45;&gt; lsw5&#45;h\n10.5.0.10/24</text>
</g>
<!-- node5 -->
<g id="node22" class="node">
<title>node5</title>
<path fill="#ede9fe" stroke="#374151" d="M252,-331C252,-331 46,-331 46,-331 40,-331 34,-325 34,-319 34,-319 34,-307 34,-307 34,-301 40,-295 46,-295 46,-295 252,-295 252,-295 258,-295 264,-301 264,-307 264,-307 264,-319 264,-319 264,-325 258,-331 252,-331"/>
<text text-anchor="middle" x="149" y="-310.5" font-family="Arial" font-size="10.00">node5\nEdge router\nprimary hub2; standby hub1</text>
</g>
<!-- node5&#45;&#45;mgmtbr -->
<g id="edge8" class="edge">
<title>node5&#45;&#45;mgmtbr</title>
<path fill="none" stroke="#374151" d="M191.04,-331.03C229.79,-348.06 282,-371 282,-371 282,-371 318,-1575 318,-1575 318,-1575 484,-1605 484,-1605 484,-1605 611.4,-1736.1 651.71,-1777.57"/>
<text text-anchor="middle" x="401" y="-1607.6" font-family="Arial" font-size="8.00">node5&#45;mgmt &lt;&#45;&gt; mgmtbr&#45;n5\n172.30.0.15/24</text>
</g>
<!-- node5&#45;&#45;s_mpls -->
<g id="edge27" class="edge">
<title>node5&#45;&#45;s_mpls</title>
<path fill="none" stroke="#2563eb" stroke-width="1.8" d="M191.04,-331.03C229.79,-348.06 282,-371 282,-371 282,-371 318,-758 318,-758 318,-758 484,-812 484,-812 484,-812 512,-1012 512,-1012 512,-1012 547.9,-1019.33 584.78,-1026.86"/>
<text text-anchor="middle" x="401" y="-814.6" font-family="Arial" font-size="8.00">node5&#45;mpls &lt;&#45;&gt; s_mpls&#45;n5\n192.168.10.15/24</text>
</g>
<!-- node5&#45;&#45;s_bb -->
<g id="edge28" class="edge">
<title>node5&#45;&#45;s_bb</title>
<path fill="none" stroke="#16a34a" stroke-width="1.8" d="M191.04,-331.03C229.79,-348.06 282,-371 282,-371 282,-371 318,-641 318,-641 318,-641 484,-671 484,-671 484,-671 512,-951 512,-951 512,-951 550.54,-958.87 588.78,-966.68"/>
<text text-anchor="middle" x="401" y="-673.6" font-family="Arial" font-size="8.00">node5&#45;bb &lt;&#45;&gt; s_bb&#45;n5\n192.168.20.15/24</text>
</g>
<!-- node5&#45;&#45;s_lte -->
<g id="edge29" class="edge">
<title>node5&#45;&#45;s_lte</title>
<path fill="none" stroke="#d97706" stroke-width="1.8" d="M191.04,-331.03C229.79,-348.06 282,-371 282,-371 282,-371 318,-563 318,-563 318,-563 484,-593 484,-593 484,-593 616.17,-834.14 653.86,-902.9"/>
<text text-anchor="middle" x="401" y="-595.6" font-family="Arial" font-size="8.00">node5&#45;lte &lt;&#45;&gt; s_lte&#45;n5\n192.168.30.15/24</text>
</g>
<!-- node5&#45;&#45;lsw5 -->
<g id="edge38" class="edge">
<title>node5&#45;&#45;lsw5</title>
<path fill="none" stroke="#374151" d="M264.02,-307.23C355.38,-302.61 482.07,-296.2 568.17,-291.84"/>
<text text-anchor="middle" x="401" y="-306.6" font-family="Arial" font-size="8.00">node5&#45;lan &lt;&#45;&gt; lsw5&#45;r\n10.5.0.1/24</text>
</g>
<!-- dc_app -->
<g id="node24" class="node">
<title>dc_app</title>
<polygon fill="#cffafe" stroke="#374151" points="269,-142 29,-142 29,-138 25,-138 25,-134 29,-134 29,-114 25,-114 25,-110 29,-110 29,-106 269,-106 269,-142"/>
<polyline fill="none" stroke="#374151" points="29,-138 33,-138 33,-134 29,-134 "/>
<polyline fill="none" stroke="#374151" points="29,-114 33,-114 33,-110 29,-110 "/>
<text text-anchor="middle" x="149" y="-121.5" font-family="Arial" font-size="10.00">dc_app\nCentral backup service\n10.100.0.10:8443</text>
</g>
<!-- dc_app&#45;&#45;dcbr -->
<g id="edge42" class="edge">
<title>dc_app&#45;&#45;dcbr</title>
<path fill="none" stroke="#374151" d="M269.16,-124C389.52,-124 567.13,-124 635.52,-124"/>
<text text-anchor="middle" x="401" y="-126.6" font-family="Arial" font-size="8.00">dc_app&#45;net &lt;&#45;&gt; dcbr&#45;app\n10.100.0.10/24</text>
</g>
<!-- inetbr -->
<g id="node25" class="node">
<title>inetbr</title>
<polygon fill="#e5e7eb" stroke="#374151" points="664.78,-52 630.52,-34 664.78,-16 699.05,-34 664.78,-52"/>
<text text-anchor="middle" x="664.78" y="-31.5" font-family="Arial" font-size="10.00">inetbr</text>
</g>
<!-- public_saas -->
<g id="node26" class="node">
<title>public_saas</title>
<polygon fill="#dcfce7" stroke="#374151" points="282,-52 16,-52 16,-48 12,-48 12,-44 16,-44 16,-24 12,-24 12,-20 16,-20 16,-16 282,-16 282,-52"/>
<polyline fill="none" stroke="#374151" points="16,-48 20,-48 20,-44 16,-44 "/>
<polyline fill="none" stroke="#374151" points="16,-24 20,-24 20,-20 16,-20 "/>
<text text-anchor="middle" x="149" y="-31.5" font-family="Arial" font-size="10.00">public_saas\nPublic collaboration SaaS\n198.18.0.10:443</text>
</g>
<!-- public_saas&#45;&#45;s_bb -->
<g id="edge44" class="edge">
<title>public_saas&#45;&#45;s_bb</title>
<path fill="none" stroke="#374151" d="M191.04,-52.03C229.79,-69.06 282,-92 282,-92 282,-92 318,-602 318,-602 318,-602 484,-632 484,-632 484,-632 512,-951 512,-951 512,-951 550.54,-958.87 588.78,-966.68"/>
<text text-anchor="middle" x="401" y="-634.6" font-family="Arial" font-size="8.00">saas&#45;bb &lt;&#45;&gt; s_bb&#45;saas\n192.168.20.254/24</text>
</g>
<!-- public_saas&#45;&#45;s_lte -->
<g id="edge45" class="edge">
<title>public_saas&#45;&#45;s_lte</title>
<path fill="none" stroke="#374151" d="M191.04,-52.03C229.79,-69.06 282,-92 282,-92 282,-92 318,-524 318,-524 318,-524 484,-554 484,-554 484,-554 618.59,-828.75 654.87,-902.8"/>
<text text-anchor="middle" x="401" y="-556.6" font-family="Arial" font-size="8.00">saas&#45;lte &lt;&#45;&gt; s_lte&#45;saas\n192.168.30.254/24</text>
</g>
<!-- public_saas&#45;&#45;inetbr -->
<g id="edge43" class="edge">
<title>public_saas&#45;&#45;inetbr</title>
<path fill="none" stroke="#374151" d="M282.31,-34C399.16,-34 561.38,-34 630.48,-34"/>
<text text-anchor="middle" x="401" y="-36.6" font-family="Arial" font-size="8.00">saas&#45;inet &lt;&#45;&gt; inetbr&#45;saas\n198.18.0.10/24</text>
</g>
</g>
</svg>
